<svg width="80" height="116" viewBox="0 0 80 116" fill="none" xmlns="http://www.w3.org/2000/svg">
<g clip-path="url(#clip0_307_968)">
<path d="M30.2419 82.2278C29.6815 82.2278 29.1346 82.1574 28.6144 82.0196C25.7705 81.2638 24.1535 78.7779 22.7278 76.5839C21.9551 75.3965 21.0802 74.0495 20.3381 73.6227C19.8877 73.3641 19.1457 73.2272 18.3195 73.1426L2.93359 107.786L16.2942 103.397L21.979 116L38.3288 79.2884C37.6566 79.5632 36.9337 79.9291 36.2557 80.2723C34.3576 81.2334 32.3953 82.2278 30.2429 82.2278H30.2419Z" fill="#FF944C"/>
<path d="M59.6621 73.6228C58.9201 74.0497 58.0451 75.3958 57.2725 76.584C55.8458 78.7781 54.2297 81.264 51.3859 82.0198C50.8657 82.1576 50.3178 82.2279 49.7584 82.2279C47.6059 82.2279 45.6427 81.2336 43.7455 80.2725C43.1976 79.9949 42.62 79.7031 42.0645 79.4559L57.8319 116L63.8591 103.398L76.972 107.787L62.0011 73.1133C61.0496 73.1941 60.1718 73.331 59.6641 73.6228H59.6621Z" fill="#FF944C"/>
<path d="M79.8833 29.1426C78.994 25.8353 73.3952 24.4645 71.7093 21.5689C69.9996 18.6315 71.5879 13.132 69.1897 10.7479C66.7914 8.36367 61.2596 9.94267 58.3048 8.24294C55.3921 6.56697 54.0132 1.00102 50.6864 0.116928C50.3833 0.036124 50.0744 0 49.7589 0C46.7247 0 43.1598 3.3738 40.0004 3.3738C36.841 3.3738 33.2761 0 30.242 0C29.9264 0 29.6176 0.036124 29.3144 0.116928C25.9877 1.00102 24.6088 6.56697 21.6961 8.24294C18.7413 9.94267 13.2094 8.36367 10.8112 10.7479C8.41295 13.132 10.0013 18.6315 8.29151 21.5689C6.60566 24.4645 1.00783 25.8353 0.118523 29.1426C-0.741137 32.3396 3.3946 36.299 3.3946 39.765C3.3946 43.231 -0.742093 47.1913 0.117567 50.3883C1.00687 53.6965 6.60566 55.0663 8.29151 57.962C10.0013 60.8994 8.41295 66.3988 10.8112 68.783C12.6883 70.6491 16.4836 70.0882 19.4623 70.5702C20.2894 70.7043 21.0544 70.9191 21.6961 71.2879C24.6088 72.9639 25.9877 78.5289 29.3144 79.413C29.6176 79.4938 29.9264 79.5299 30.242 79.5299C33.1863 79.5299 36.6306 76.3529 39.7183 76.1656C39.812 76.1599 39.9067 76.1561 39.9995 76.1561C40.2175 76.1561 40.4384 76.1732 40.6602 76.2037C43.6485 76.6077 46.9332 79.5299 49.7569 79.5299C50.0725 79.5299 50.3814 79.4938 50.6845 79.413C54.0113 78.5289 55.3902 72.963 58.3029 71.287C59.0325 70.8668 59.9199 70.6472 60.878 70.5189C63.7993 70.1263 67.3814 70.5769 69.1877 68.7821C71.586 66.3979 69.9977 60.8985 71.7074 57.961C73.3933 55.0654 78.9911 53.6946 79.8804 50.3873C80.7401 47.1904 76.6043 43.231 76.6043 39.765C76.6043 36.299 80.7401 32.3396 79.8804 29.1426H79.8833ZM67.871 51.472C66.3477 55.053 64.1665 58.269 61.3896 61.0297C60.3339 62.0792 59.2113 63.0422 58.0284 63.9177C56.0997 65.3446 54.0084 66.5348 51.7756 67.4731C48.838 68.7079 45.757 69.4618 42.5871 69.727C41.7312 69.7983 40.8687 69.8373 40.0004 69.8373C39.2899 69.8373 38.5842 69.8116 37.8824 69.7641C34.547 69.5359 31.3073 68.7697 28.2253 67.4731C26.1216 66.588 24.1441 65.4796 22.309 64.161C21.0019 63.2218 19.7664 62.178 18.6112 61.0297C15.8343 58.269 13.6531 55.053 12.1299 51.472C10.5521 47.7626 9.75169 43.8242 9.75169 39.7659C9.75169 35.7077 10.5521 31.7692 12.1299 28.0598C13.6531 24.4788 15.8343 21.2628 18.6112 18.5022C21.3882 15.7415 24.6231 13.5731 28.2253 12.0588C31.9565 10.4902 35.9182 9.69455 40.0004 9.69455C44.0826 9.69455 48.0443 10.4902 51.7756 12.0588C55.3777 13.5731 58.6127 15.7415 61.3896 18.5022C64.1665 21.2628 66.3477 24.4788 67.871 28.0598C69.4488 31.7692 70.2492 35.7077 70.2492 39.7659C70.2492 43.8242 69.4488 47.7626 67.871 51.472Z" fill="#FF944C"/>
<path d="M59.371 24.8303C58.431 24.1344 57.2749 23.8426 56.1159 24.0118C54.956 24.18 53.9319 24.7865 53.2319 25.721L35.9699 48.7434L35.5013 49.369L33.7122 47.75L26.2066 40.9559C25.3403 40.1716 24.2186 39.7704 23.0472 39.8237C21.8768 39.8778 20.7972 40.3826 20.0083 41.2439C18.3798 43.0225 18.5099 45.786 20.299 47.4059L27.0405 53.509L33.1719 59.0588C33.2197 59.1025 33.2685 59.1443 33.3182 59.1852C34.1061 59.8383 35.0958 60.1957 36.1257 60.1957C36.2653 60.1957 36.4069 60.1891 36.5455 60.1758C37.7752 60.0579 38.9046 59.4257 39.6437 58.4408L44.1983 52.3663L48.1208 47.134L60.266 30.9352C60.966 30.0008 61.2586 28.8515 61.0893 27.6993C60.9201 26.5462 60.31 25.528 59.37 24.8322L59.371 24.8303Z" fill="#FF944C"/>
</g>
<defs>
<clipPath id="clip0_307_968">
<rect width="80" height="116" fill="white"/>
</clipPath>
</defs>
</svg>
