<svg width="50" height="50" viewBox="0 0 50 50" fill="none" xmlns="http://www.w3.org/2000/svg">
<g clip-path="url(#clip0_261_1034)">
<path d="M46.5576 50.0001H50L40.5834 39.1182H37.9265L38.7871 40.1999H11.2128L12.0735 39.1182H9.41659L0 50.0001H3.44241L5.11358 47.8919H44.8914L46.5626 50.0001H46.5576ZM10.1921 41.4934H39.8129L41.2239 43.2749H8.77614L10.1871 41.4934H10.1921ZM6.13429 46.6076L7.75543 44.5638H42.2396L43.8607 46.6076H6.13429Z" fill="#646464"/>
<path d="M13.2339 0H36.7653C39.7474 0 42.1641 2.22795 42.1641 4.96686V35.0396C42.1641 36.3055 41.0483 37.332 39.6724 37.332H10.3218C8.94586 37.332 7.83008 36.3055 7.83008 35.0396V4.96686C7.83508 2.22795 10.2518 0 13.2339 0Z" fill="#646464"/>
<path d="M19.7285 1.87354H30.2709C30.8062 1.87354 31.2415 2.27401 31.2415 2.76656V5.40419C31.2415 5.89674 30.8062 6.29721 30.2709 6.29721H19.7285C19.1931 6.29721 18.7578 5.89674 18.7578 5.40419V2.76656C18.7578 2.27401 19.1931 1.87354 19.7285 1.87354Z" fill="white"/>
<path d="M36.9761 8.3501H13.0243C11.8637 8.3501 10.9229 9.21569 10.9229 10.2834V21.4278C10.9229 22.4956 11.8637 23.3611 13.0243 23.3611H36.9761C38.1367 23.3611 39.0776 22.4956 39.0776 21.4278V10.2834C39.0776 9.21569 38.1367 8.3501 36.9761 8.3501Z" fill="white"/>
<path d="M13.7999 27.0347H12.1488C11.8282 27.0347 11.5684 27.2737 11.5684 27.5686V32.692C11.5684 32.9869 11.8282 33.226 12.1488 33.226H13.7999C14.1205 33.226 14.3803 32.9869 14.3803 32.692V27.5686C14.3803 27.2737 14.1205 27.0347 13.7999 27.0347Z" fill="white"/>
<path d="M38.2071 27.0347H36.556C36.2354 27.0347 35.9756 27.2737 35.9756 27.5686V32.692C35.9756 32.9869 36.2354 33.226 36.556 33.226H38.2071C38.5277 33.226 38.7876 32.9869 38.7876 32.692V27.5686C38.7876 27.2737 38.5277 27.0347 38.2071 27.0347Z" fill="white"/>
</g>
<defs>
<clipPath id="clip0_261_1034">
<rect width="50" height="50" fill="white"/>
</clipPath>
</defs>
</svg>
