<svg width="50" height="50" viewBox="0 0 50 50" fill="none" xmlns="http://www.w3.org/2000/svg">
<g clip-path="url(#clip0_261_1021)">
<path d="M12.1425 0H37.7233C41.1356 0 43.9049 2.79014 43.9049 6.22824V40.8462C43.9049 42.7756 42.3499 44.3375 40.4397 44.3375H9.42609C7.51114 44.3375 5.96094 42.7708 5.96094 40.8462V6.22824C5.96094 2.79014 8.73018 0 12.1425 0Z" fill="#646464"/>
<path d="M1.90056 9.72461H4.50662V20.0196H1.90056C0.849491 20.0196 0 19.1588 0 18.1047V11.6443C0 10.5853 0.854291 9.72945 1.90056 9.72945V9.72461Z" fill="#646464"/>
<path d="M48.0994 19.9854H45.4934V9.69038H48.0994C49.1505 9.69038 50 10.5511 50 11.6053V18.0656C50 19.1246 49.1457 19.9805 48.0994 19.9805V19.9854Z" fill="#646464"/>
<path d="M13.5682 3.93604H35.9094C37.9923 3.93604 39.6817 5.63816 39.6817 7.73681V23.3993C39.6817 24.7339 38.6066 25.8122 37.2868 25.8122H12.1908C10.8662 25.8122 9.7959 24.7291 9.7959 23.3993V7.73681C9.7959 5.63816 11.4853 3.93604 13.5682 3.93604Z" fill="white"/>
<path d="M15.0512 34.6807H10.175C9.68463 34.6807 9.28711 35.0812 9.28711 35.5752V38.3315C9.28711 38.8256 9.68463 39.2261 10.175 39.2261H15.0512C15.5415 39.2261 15.9391 38.8256 15.9391 38.3315V35.5752C15.9391 35.0812 15.5415 34.6807 15.0512 34.6807Z" fill="white"/>
<path d="M40.0316 34.6807H35.1555C34.6651 34.6807 34.2676 35.0812 34.2676 35.5752V38.3315C34.2676 38.8256 34.6651 39.2261 35.1555 39.2261H40.0316C40.522 39.2261 40.9195 38.8256 40.9195 38.3315V35.5752C40.9195 35.0812 40.522 34.6807 40.0316 34.6807Z" fill="white"/>
<path d="M8.91699 47.408C8.91699 48.8393 10.0688 50.0047 11.4943 50.0047H14.7147C16.1353 50.0047 17.2919 48.8442 17.2919 47.408V45.7881H8.92179V47.408H8.91699Z" fill="#646464"/>
<path d="M33.4082 45.7832V47.4031C33.4082 48.8345 34.5601 49.9998 35.9855 49.9998H39.2059C40.6265 49.9998 41.7831 48.8393 41.7831 47.4031V45.7832H33.413H33.4082Z" fill="#646464"/>
<path d="M32.1704 37.4033H18.041V38.8927H32.1704V37.4033Z" fill="white"/>
</g>
<defs>
<clipPath id="clip0_261_1021">
<rect width="50" height="50" fill="white"/>
</clipPath>
</defs>
</svg>
