<svg width="25" height="34" viewBox="0 0 25 34" fill="none" xmlns="http://www.w3.org/2000/svg">
<path d="M12.5008 0C5.60727 0 0 5.58049 0 12.4411C0 19.3018 11.1279 32.9775 11.6017 33.5691C11.8198 33.8417 12.1503 34 12.5 34C12.8497 34 13.1802 33.8417 13.3983 33.5691C13.8721 32.9775 25 19.0052 25 12.4411C25 5.87713 19.3936 0 12.5008 0ZM12.5008 30.9964C8.99161 26.4301 2.29786 16.8169 2.29786 12.4411C2.29786 6.84242 6.87442 2.28688 12.5008 2.28688C18.1272 2.28688 22.7038 6.84159 22.7038 12.4411C22.7038 16.8169 16.0101 26.4301 12.5008 30.9964Z" fill="#212121"/>
</svg>
