<svg width="57" height="56" viewBox="0 0 57 56" fill="none" xmlns="http://www.w3.org/2000/svg">
<rect x="1.82274" y="0.983871" width="54.0323" height="54.0323" rx="27.0161" stroke="#DAD9D9" stroke-width="1.96774"/>
<path d="M41.2798 39.4532C40.3511 40.3818 38.8477 40.3818 37.9191 39.4532L33.7271 35.2599C32.001 36.3634 29.9647 37.0235 27.7633 37.0235C21.6404 37.0235 16.6748 32.0608 16.6748 25.9368C16.6748 19.8129 21.6384 14.8501 27.7633 14.8501C33.8882 14.8501 38.8498 19.8129 38.8498 25.9368C38.8498 28.1359 38.1895 30.1739 37.0858 31.8997L41.2778 36.091C42.2065 37.0196 42.2065 38.5227 41.2778 39.4493L41.2798 39.4532ZM27.7633 18.0194C23.3903 18.0194 19.8426 21.5666 19.8426 25.9388C19.8426 30.3111 23.3883 33.8562 27.7633 33.8562C32.1382 33.8562 35.6839 30.3111 35.6839 25.9388C35.6839 21.5666 32.1382 18.0194 27.7633 18.0194Z" fill="#DAD9D9"/>
</svg>
