<svg width="36" height="35" viewBox="0 0 36 35" fill="none" xmlns="http://www.w3.org/2000/svg">
<g clip-path="url(#clip0_400_241)">
<path d="M18.0001 0C10.8957 0 8.81784 0.00733202 8.41393 0.0407766C6.95601 0.162078 6.04876 0.391688 5.06047 0.883838C4.2987 1.26228 3.69799 1.70079 3.10512 2.31553C2.02537 3.43669 1.37101 4.81602 1.13407 6.45545C1.01894 7.25144 0.985371 7.41377 0.978682 11.4793C0.97611 12.8346 0.978682 14.618 0.978682 17.0104C0.978682 24.111 0.986401 26.1873 1.02049 26.5905C1.13832 28.0096 1.36072 28.9024 1.83191 29.879C2.73234 31.7485 4.45216 33.1518 6.47813 33.6755C7.17957 33.8561 7.95433 33.9557 8.94892 34.0028C9.37045 34.021 13.6658 34.0341 17.9637 34.0341C22.2617 34.0341 26.5597 34.029 26.9705 34.008C28.1223 33.9537 28.7911 33.864 29.5306 33.6728C31.5696 33.1467 33.2579 31.7641 34.1767 29.8686C34.6386 28.9154 34.8729 27.9886 34.9789 26.6438C35.002 26.3505 35.0117 21.6751 35.0117 17.0059C35.0117 12.336 35.0011 7.66936 34.9782 7.37608C34.8708 6.00935 34.6366 5.09027 34.1596 4.11909C33.7683 3.32388 33.3338 2.72998 32.703 2.12283C31.5772 1.04733 30.2004 0.392717 28.5597 0.156032C27.7647 0.0410341 27.6065 0.00707482 23.5387 0H18.0001Z" fill="url(#paint0_radial_400_241)"/>
<path d="M18.0001 0C10.8957 0 8.81784 0.00733202 8.41393 0.0407766C6.95601 0.162078 6.04876 0.391688 5.06047 0.883838C4.2987 1.26228 3.69799 1.70079 3.10512 2.31553C2.02537 3.43669 1.37101 4.81602 1.13407 6.45545C1.01894 7.25144 0.985371 7.41377 0.978682 11.4793C0.97611 12.8346 0.978682 14.618 0.978682 17.0104C0.978682 24.111 0.986401 26.1873 1.02049 26.5905C1.13832 28.0096 1.36072 28.9024 1.83191 29.879C2.73234 31.7485 4.45216 33.1518 6.47813 33.6755C7.17957 33.8561 7.95433 33.9557 8.94892 34.0028C9.37045 34.021 13.6658 34.0341 17.9637 34.0341C22.2617 34.0341 26.5597 34.029 26.9705 34.008C28.1223 33.9537 28.7911 33.864 29.5306 33.6728C31.5696 33.1467 33.2579 31.7641 34.1767 29.8686C34.6386 28.9154 34.8729 27.9886 34.9789 26.6438C35.002 26.3505 35.0117 21.6751 35.0117 17.0059C35.0117 12.336 35.0011 7.66936 34.9782 7.37608C34.8708 6.00935 34.6366 5.09027 34.1596 4.11909C33.7683 3.32388 33.3338 2.72998 32.703 2.12283C31.5772 1.04733 30.2004 0.392717 28.5597 0.156032C27.7647 0.0410341 27.6065 0.00707482 23.5387 0H18.0001Z" fill="url(#paint1_radial_400_241)"/>
<path d="M18.0001 0C10.8957 0 8.81784 0.00733202 8.41393 0.0407766C6.95601 0.162078 6.04876 0.391688 5.06047 0.883838C4.2987 1.26228 3.69799 1.70079 3.10512 2.31553C2.02537 3.43669 1.37101 4.81602 1.13407 6.45545C1.01894 7.25144 0.985371 7.41377 0.978682 11.4793C0.97611 12.8346 0.978682 14.618 0.978682 17.0104C0.978682 24.111 0.986401 26.1873 1.02049 26.5905C1.13832 28.0096 1.36072 28.9024 1.83191 29.879C2.73234 31.7485 4.45216 33.1518 6.47813 33.6755C7.17957 33.8561 7.95433 33.9557 8.94892 34.0028C9.37045 34.021 13.6658 34.0341 17.9637 34.0341C22.2617 34.0341 26.5597 34.029 26.9705 34.008C28.1223 33.9537 28.7911 33.864 29.5306 33.6728C31.5696 33.1467 33.2579 31.7641 34.1767 29.8686C34.6386 28.9154 34.8729 27.9886 34.9789 26.6438C35.002 26.3505 35.0117 21.6751 35.0117 17.0059C35.0117 12.336 35.0011 7.66936 34.9782 7.37608C34.8708 6.00935 34.6366 5.09027 34.1596 4.11909C33.7683 3.32388 33.3338 2.72998 32.703 2.12283C31.5772 1.04733 30.2004 0.392717 28.5597 0.156032C27.7647 0.0410341 27.6065 0.00707482 23.5387 0H18.0001Z" fill="url(#paint2_radial_400_241)"/>
<path d="M18.0001 0C10.8957 0 8.81784 0.00733202 8.41393 0.0407766C6.95601 0.162078 6.04876 0.391688 5.06047 0.883838C4.2987 1.26228 3.69799 1.70079 3.10512 2.31553C2.02537 3.43669 1.37101 4.81602 1.13407 6.45545C1.01894 7.25144 0.985371 7.41377 0.978682 11.4793C0.97611 12.8346 0.978682 14.618 0.978682 17.0104C0.978682 24.111 0.986401 26.1873 1.02049 26.5905C1.13832 28.0096 1.36072 28.9024 1.83191 29.879C2.73234 31.7485 4.45216 33.1518 6.47813 33.6755C7.17957 33.8561 7.95433 33.9557 8.94892 34.0028C9.37045 34.021 13.6658 34.0341 17.9637 34.0341C22.2617 34.0341 26.5597 34.029 26.9705 34.008C28.1223 33.9537 28.7911 33.864 29.5306 33.6728C31.5696 33.1467 33.2579 31.7641 34.1767 29.8686C34.6386 28.9154 34.8729 27.9886 34.9789 26.6438C35.002 26.3505 35.0117 21.6751 35.0117 17.0059C35.0117 12.336 35.0011 7.66936 34.9782 7.37608C34.8708 6.00935 34.6366 5.09027 34.1596 4.11909C33.7683 3.32388 33.3338 2.72998 32.703 2.12283C31.5772 1.04733 30.2004 0.392717 28.5597 0.156032C27.7647 0.0410341 27.6065 0.00707482 23.5387 0H18.0001Z" fill="white"/>
<path d="M18.0019 4.37012C14.5653 4.37012 14.134 4.38517 12.7842 4.44653C11.4371 4.50814 10.5176 4.72129 9.713 5.03399C8.88075 5.35686 8.17468 5.78894 7.47131 6.49205C6.76743 7.1949 6.3351 7.90032 6.01081 8.73181C5.69708 9.53602 5.48355 10.4551 5.42296 11.8007C5.3625 13.1495 5.34668 13.5808 5.34668 17.0149C5.34668 20.449 5.36212 20.8786 5.42322 22.2274C5.48509 23.5735 5.69849 24.4925 6.01107 25.2964C6.33458 26.128 6.76692 26.8336 7.47054 27.5363C8.17365 28.2397 8.87959 28.6728 9.71133 28.9958C10.5166 29.3085 11.4363 29.5216 12.7831 29.5832C14.133 29.6446 14.564 29.6596 18.0004 29.6596C21.4373 29.6596 21.8672 29.6446 23.217 29.5832C24.5642 29.5215 25.4848 29.3085 26.29 28.9958C27.122 28.6729 27.8269 28.2397 28.53 27.5363C29.2339 26.8336 29.6662 26.128 29.9905 25.2967C30.3015 24.4925 30.515 23.5732 30.5783 22.2276C30.639 20.8789 30.6547 20.449 30.6547 17.0149C30.6547 13.5808 30.639 13.1498 30.5783 11.801C30.515 10.4549 30.3015 9.53602 29.9905 8.73207C29.6662 7.90032 29.2339 7.1949 28.53 6.49205C27.8261 5.78868 27.1222 5.3566 26.2892 5.03399C25.4824 4.72129 24.5623 4.50814 23.2152 4.44653C21.8655 4.38517 21.4357 4.37012 17.998 4.37012H18.0019ZM16.8668 6.64885C17.2037 6.64821 17.5796 6.64885 18.002 6.64885C21.3807 6.64885 21.7811 6.66094 23.1153 6.72153C24.349 6.77787 25.0187 6.98394 25.4648 7.15695C26.0552 7.38618 26.4763 7.66017 26.919 8.10266C27.3619 8.54516 27.636 8.96669 27.8658 9.55686C28.0391 10.0019 28.2454 10.6711 28.3016 11.904C28.3622 13.2369 28.3755 13.6374 28.3755 17.0121C28.3755 20.3865 28.3622 20.7869 28.3016 22.1199C28.2452 23.3528 28.0391 24.0219 27.8658 24.4671C27.6365 25.0572 27.3619 25.4774 26.919 25.9196C26.4761 26.3621 26.0556 26.6361 25.4648 26.8653C25.0192 27.0393 24.349 27.2448 23.1153 27.3012C21.7814 27.3616 21.3807 27.3749 18.002 27.3749C14.6231 27.3749 14.2226 27.3617 12.8886 27.3012C11.6548 27.2442 10.9852 27.0382 10.539 26.8651C9.9484 26.636 9.52661 26.362 9.08373 25.9194C8.64072 25.4769 8.3666 25.0564 8.13673 24.4661C7.96346 24.0209 7.75714 23.3517 7.70092 22.1189C7.64034 20.7859 7.62812 20.3855 7.62812 17.0088C7.62812 13.6322 7.64034 13.2338 7.70092 11.9008C7.75739 10.668 7.96346 9.99885 8.13673 9.55313C8.36609 8.96309 8.64072 8.54156 9.08373 8.09893C9.52661 7.65644 9.9484 7.38245 10.539 7.15271C10.9849 6.97893 11.6548 6.77337 12.8886 6.71664C14.0559 6.66403 14.5083 6.64821 16.8668 6.64564V6.64885ZM24.7566 8.7484C23.9183 8.7484 23.2381 9.4272 23.2381 10.2652C23.2381 11.1029 23.9183 11.7826 24.7566 11.7826C25.5949 11.7826 26.2752 11.1029 26.2752 10.2652C26.2752 9.42746 25.5949 8.74776 24.7566 8.74776V8.7484ZM18.0019 10.5212C14.413 10.5212 11.5033 13.4287 11.5033 17.0149C11.5033 20.6009 14.413 23.5071 18.0019 23.5071C21.5906 23.5071 24.4991 20.6009 24.4991 17.0149C24.4991 13.4287 21.5903 10.5212 18.0016 10.5212H18.0019ZM18.0019 12.8C20.3313 12.8 22.2199 14.687 22.2199 17.0149C22.2199 19.3425 20.3313 21.2298 18.0019 21.2298C15.6722 21.2298 13.7837 19.3425 13.7837 17.0149C13.7837 14.6869 15.6721 12.8 18.0019 12.8Z" fill="#444444"/>
</g>
<defs>
<radialGradient id="paint0_radial_400_241" cx="0" cy="0" r="1" gradientUnits="userSpaceOnUse" gradientTransform="translate(33.9127 15.9522) rotate(164.25) scale(21.7459 15.6669)">
<stop stop-color="#FF005F"/>
<stop offset="1" stop-color="#FC01D8"/>
</radialGradient>
<radialGradient id="paint1_radial_400_241" cx="0" cy="0" r="1" gradientUnits="userSpaceOnUse" gradientTransform="translate(10.0176 36.6555) rotate(-90) scale(27.1667 28.8233)">
<stop stop-color="#FFCC00"/>
<stop offset="0.124161" stop-color="#FFCC00"/>
<stop offset="0.567196" stop-color="#FE4A05"/>
<stop offset="0.694203" stop-color="#FF0F3F"/>
<stop offset="1" stop-color="#FE0657" stop-opacity="0"/>
</radialGradient>
<radialGradient id="paint2_radial_400_241" cx="0" cy="0" r="1" gradientUnits="userSpaceOnUse" gradientTransform="translate(18.8545 33.5542) rotate(-59.8703) scale(11.2337 14.625)">
<stop stop-color="#FFCC00"/>
<stop offset="1" stop-color="#FFCC00" stop-opacity="0"/>
</radialGradient>
<clipPath id="clip0_400_241">
<rect width="34.0342" height="34.0342" fill="white" transform="translate(0.977539)"/>
</clipPath>
</defs>
</svg>
