<svg width="33" height="35" viewBox="0 0 33 35" fill="none" xmlns="http://www.w3.org/2000/svg">
<g clip-path="url(#clip0_400_228)">
<path d="M32.614 29.1697C32.6151 29.1697 32.6161 29.1707 32.6161 29.1719C32.615 31.8546 30.5317 34.03 27.9585 34.03H4.65763C2.08368 34.03 0 31.8534 0 29.1697V4.86021C0 2.17653 2.0879 0 4.65763 0H27.9542C30.5282 0 32.6119 2.17653 32.6119 4.86021V29.1676C32.6119 29.1688 32.6128 29.1697 32.614 29.1697Z" fill="white"/>
<path d="M14.6073 25.4379C14.6073 25.4379 15.9724 25.5816 16.6825 25.5816C23.2505 25.5816 28.5759 21.3806 28.5759 16.1992C28.5759 11.0178 23.2505 6.81689 16.6825 6.81689C10.1145 6.81689 4.78906 11.0178 4.78906 16.1992C4.78906 19.4112 6.8347 22.247 9.95388 23.9375C9.95388 23.9375 9.53122 26.1817 7.17705 28.3329C7.17705 28.3329 6.94459 28.7428 7.64197 28.5907C8.34357 28.4385 12.6884 26.9044 14.6073 25.4421V25.4379Z" fill="#444444"/>
<path d="M11.5004 13.6636H7.9501C7.6162 13.6636 7.3457 13.9341 7.3457 14.2679C7.3457 14.6018 7.6162 14.8723 7.9501 14.8723H9.10394V19.1281C9.10394 19.2845 9.16734 19.4367 9.27723 19.5465C9.38712 19.6564 9.53927 19.7198 9.69142 19.7198H9.82245C9.97883 19.7198 10.1268 19.6564 10.2366 19.5465C10.3465 19.4367 10.4099 19.2845 10.4099 19.1281V14.8723H11.5004C11.8343 14.8723 12.1048 14.6018 12.1048 14.2679C12.1048 13.9341 11.8343 13.6636 11.5004 13.6636Z" fill="white"/>
<path d="M20.038 18.5788H18.3854V14.2342C18.3854 13.8707 18.0896 13.5791 17.7303 13.5791C17.3711 13.5791 17.0752 13.8707 17.0752 14.2342V18.9169C17.0752 18.9549 17.0794 18.9887 17.0879 19.0225C17.0794 19.0564 17.0752 19.0902 17.0752 19.1282C17.0752 19.4325 17.3203 19.6776 17.6246 19.6776H20.038C20.3423 19.6776 20.5874 19.4325 20.5874 19.1282C20.5874 18.8239 20.3423 18.5788 20.038 18.5788Z" fill="white"/>
<path d="M25.3169 18.7773L23.4741 16.3598L25.1393 14.6947C25.3633 14.4707 25.3633 14.103 25.1393 13.879C24.9153 13.655 24.5476 13.655 24.3236 13.879L22.2653 15.9372V14.2298C22.2653 13.8663 21.9694 13.5747 21.6102 13.5747C21.2509 13.5747 20.9551 13.8663 20.9551 14.2298V19.0562C20.9551 19.4196 21.2509 19.7113 21.6102 19.7113C21.9694 19.7113 22.2653 19.4196 22.2653 19.0562V17.5685L22.6415 17.1966L24.3828 19.483C24.5772 19.7408 24.9449 19.7958 25.2027 19.6014C25.4606 19.407 25.5155 19.0393 25.3211 18.7815L25.3169 18.7773Z" fill="white"/>
<path d="M16.5849 18.938L14.814 14.0947C14.814 14.0947 14.814 14.0947 14.8098 14.0905C14.6956 13.7946 14.3702 13.5791 13.9814 13.5791C13.5502 13.5791 13.191 13.8411 13.1191 14.1877C13.1065 14.213 13.0938 14.2384 13.0853 14.268L11.344 18.938C11.2383 19.2423 11.3989 19.5804 11.7033 19.6861C12.0076 19.7917 12.3457 19.6311 12.4513 19.3268L12.7514 18.4689H15.1732L15.4733 19.3268C15.579 19.6311 15.9171 19.7959 16.2214 19.6861C16.5257 19.5804 16.6863 19.2423 16.5807 18.938H16.5849ZM13.136 17.3701L13.9518 15.0456C13.9518 15.0456 13.9687 15.0456 13.9771 15.0456L14.7886 17.3658H13.136V17.3701Z" fill="white"/>
<path d="M14.7422 10.8105H14.3027L13.8378 11.5417V10.8105H13.4658V12.4039H13.8378V11.6473L14.3027 12.3785H14.7422L14.2477 11.5924L14.7422 10.8105Z" fill="white"/>
<path d="M17.583 10.8105H17.1435L16.6786 11.5417V10.8105H16.3066V12.4039H16.6786V11.6473L17.1435 12.3785H17.583L17.0885 11.5924L17.583 10.8105Z" fill="white"/>
<path d="M15.7105 12.3827H16.0824L15.8838 11.1656C15.8838 11.1656 15.8077 10.8105 15.4611 10.8105C15.1146 10.8105 15.0385 11.1656 15.0385 11.1656L14.8398 12.3827H15.2118L15.254 12.0573H15.6682L15.7105 12.3827ZM15.2879 11.7741L15.3597 11.2078C15.4696 11.0853 15.5584 11.2078 15.5584 11.2078L15.6302 11.7699H15.2879V11.7741Z" fill="white"/>
<path d="M18.5504 12.3827H18.9223L18.7236 11.1656C18.7236 11.1656 18.6476 10.8105 18.301 10.8105C17.9544 10.8105 17.8783 11.1656 17.8783 11.1656L17.6797 12.3827H18.0516L18.0939 12.0573H18.5081L18.5504 12.3827ZM18.1277 11.7741L18.1995 11.2078C18.3094 11.0853 18.3982 11.2078 18.3982 11.2078L18.47 11.7699H18.1277V11.7741Z" fill="white"/>
<path d="M20.284 11.2758C20.284 11.2758 20.2164 10.8066 19.6627 10.8066C19.109 10.8066 19.0752 11.2758 19.0752 11.2758V11.9393H19.0794L19.0752 11.952C19.0752 11.952 19.109 12.4211 19.6627 12.4211C20.2164 12.4211 20.284 11.952 20.284 11.952L20.2755 11.9393H20.284V11.2758ZM19.6627 12.0618C19.4809 12.0618 19.4514 11.8886 19.4514 11.8886V11.3392C19.4514 11.3392 19.4809 11.1659 19.6627 11.1659C19.8444 11.1659 19.912 11.3392 19.912 11.3392V11.8886C19.912 11.8886 19.8444 12.0618 19.6627 12.0618Z" fill="white"/>
</g>
<defs>
<clipPath id="clip0_400_228">
<rect width="32.6161" height="34.0342" fill="white"/>
</clipPath>
</defs>
</svg>
