<svg width="35" height="34" viewBox="0 0 35 34" fill="none" xmlns="http://www.w3.org/2000/svg">
<path d="M11.2956 6.77683C11.2956 6.99791 11.2956 7.21899 11.2963 7.44007C11.2971 7.99652 11.2879 8.55298 11.3077 9.10944C11.3168 9.23201 11.323 9.35608 11.353 9.47564C11.3862 9.61325 11.4512 9.74485 11.5488 9.84636C11.6405 9.94549 11.761 10.0114 11.8921 10.0344C11.9922 10.1002 12.0781 10.1859 12.1617 10.2724L12.2622 10.3776V17.0137H15.5634L15.4987 9.45797C15.4322 9.3245 15.3672 9.19027 15.3044 9.05492C15.1846 8.79925 15.0651 8.54283 14.9197 8.30145C14.591 7.76416 14.1158 7.33839 13.5535 7.07724C13.464 7.03588 13.3745 6.99641 13.2825 6.96181C12.9405 6.83248 12.5826 6.75653 12.2238 6.69675C12.1033 6.67644 11.9827 6.6584 11.8622 6.63772L11.2956 6.54297V6.77683ZM3.948 7.16597L3.96261 10.4889C3.96845 11.6646 3.97466 12.8399 3.98233 14.0156C3.98708 14.7413 3.99256 15.4669 3.99695 16.193L4.00243 16.9487L4.52042 16.9619L4.55403 16.9626L4.68553 16.9664L4.70234 16.9667L4.85028 16.9713C5.31859 16.9855 5.78691 17.0021 6.25558 17.0051H6.27239C6.32645 17.0051 6.38088 17.0025 6.43531 17.0002C6.56061 16.9938 6.687 16.9743 6.80317 16.9239C6.85139 16.9032 6.89741 16.8776 6.94015 16.8472C7.09175 16.9374 7.25066 17.016 7.41796 17.0701C7.53303 17.1089 7.65029 17.1408 7.76865 17.1645C8.1303 17.2371 8.5029 17.239 8.86637 17.1829C9.20539 17.1297 9.53606 17.0304 9.84975 16.8878C10.009 16.8175 10.1632 16.7336 10.3093 16.6374C10.7227 16.3621 11.077 16.0027 11.3504 15.5812C11.4034 15.5008 11.4541 15.4192 11.4983 15.3331C11.616 15.1064 11.6963 14.8594 11.7394 14.6063C11.8403 14.051 11.8549 13.4821 11.8088 12.92C11.7949 12.7337 11.7718 12.5482 11.7394 12.3643C11.6814 12.044 11.586 11.7282 11.4362 11.4394C11.3868 11.3464 11.3339 11.2553 11.2777 11.1664C11.041 10.789 10.752 10.4434 10.4083 10.1652C10.3511 10.1178 10.2913 10.0738 10.2293 10.0332C9.95825 9.85614 9.65578 9.73432 9.34601 9.65085C8.85245 9.51464 8.33593 9.49102 7.83258 9.58167C7.62874 9.61964 7.42819 9.6783 7.23605 9.75838V6.96595H3.94727L3.948 7.16597ZM27.0805 9.5185C26.858 9.52226 26.6363 9.54708 26.4179 9.58994C25.9969 9.67232 25.592 9.82579 25.2197 10.0441C24.754 10.3238 24.3664 10.7225 24.0946 11.2018C24.0105 11.3492 23.9386 11.5033 23.8776 11.6624C23.7523 11.985 23.6701 12.3241 23.623 12.6677C23.5243 12.2206 23.3446 11.7966 23.0933 11.418C22.8614 11.0671 22.5765 10.7566 22.2494 10.4983C21.5443 9.94658 20.692 9.63001 19.8071 9.59107C19.6511 9.58576 19.495 9.58953 19.3395 9.60235C18.5903 9.66709 17.872 9.93856 17.2602 10.3882C16.9234 10.6355 16.6278 10.9374 16.3849 11.2822C16.1525 11.6099 15.9792 11.978 15.8735 12.3688C15.8311 12.5301 15.8023 12.6956 15.7877 12.8621C15.7621 13.1693 15.7384 13.4776 15.7511 13.7859C15.7541 13.8698 15.7606 13.9536 15.7734 14.0367C15.807 14.2597 15.8768 14.4751 15.9627 14.6823C16.0131 14.8052 16.069 14.9255 16.1267 15.0451C16.4381 15.6304 16.8691 16.1394 17.3899 16.537C17.6973 16.7662 18.0403 16.94 18.4043 17.051C18.7722 17.166 19.1557 17.2239 19.5397 17.2367C19.6887 17.2408 19.8381 17.2367 19.9868 17.2266C20.4434 17.1975 20.8926 17.0939 21.3176 16.9197C21.3807 16.8942 21.4426 16.8656 21.5031 16.834C21.7698 16.6934 22.02 16.5212 22.2524 16.3264C22.4639 16.1497 22.6604 15.9542 22.8434 15.7463C22.9607 15.6121 23.0673 15.4677 23.1623 15.3154C23.3681 14.9855 23.5191 14.6226 23.6091 14.2416C23.6504 14.6262 23.7369 15.0082 23.8915 15.362C23.9883 15.5839 24.1125 15.7941 24.2641 15.9809C24.4686 16.231 24.7101 16.4465 24.9797 16.6193C25.258 16.8024 25.5587 16.9472 25.8655 17.0728C25.9985 17.1262 26.1366 17.1653 26.2765 17.1923V20.3412L26.7927 20.3186L26.8445 20.3164L26.8964 20.3141L26.9132 20.3134L27.0246 20.3092C27.5053 20.2904 27.9861 20.2765 28.4661 20.2449C28.7945 20.2201 29.1214 20.1431 29.4188 19.9953C29.5006 19.9539 29.5824 19.9115 29.6617 19.8648C29.9701 19.6813 30.2522 19.4544 30.4997 19.1907C30.5322 19.1576 30.5622 19.1226 30.591 19.0862C30.7919 18.841 30.9687 18.5718 31.0915 18.2759C31.1463 18.1443 31.189 18.0071 31.2204 17.8676C31.3045 17.5048 31.3388 17.1326 31.3571 16.7611C31.3666 16.572 31.3728 16.3828 31.3793 16.1937C31.4056 14.9906 31.3983 13.787 31.3987 12.5835C31.3987 12.2888 31.3994 11.994 31.3991 11.6992V9.65198H28.21V9.73846C27.8517 9.58762 27.4676 9.51281 27.0805 9.5185ZM19.8593 12.7358C19.8969 12.7373 19.936 12.7392 19.9711 12.7546C19.9835 12.7629 19.9934 12.7745 20.005 12.7839C20.1329 12.8997 20.2542 13.0246 20.3601 13.1618C20.3744 13.1881 20.3769 13.2189 20.3795 13.2483C20.3846 13.3246 20.3776 13.4005 20.3718 13.4761C20.3452 13.6714 20.2475 13.8491 20.0986 13.9732C20.0251 14.0341 19.9393 14.0792 19.8476 14.1014C19.73 14.1352 19.6029 14.1239 19.4885 14.0811C19.3425 14.0273 19.2179 13.9252 19.1342 13.7908C19.1032 13.7385 19.079 13.6823 19.0622 13.6235C19.0193 13.4631 19.0342 13.2922 19.1042 13.1422C19.1298 13.0873 19.1623 13.0362 19.1999 12.9896C19.265 12.8933 19.3563 12.8136 19.4644 12.7745C19.4995 12.7617 19.5364 12.7557 19.5729 12.7508C19.6546 12.7394 19.737 12.7344 19.8195 12.7358C19.8326 12.735 19.8458 12.7354 19.8593 12.7358ZM27.612 12.7433C27.6727 12.7433 27.7329 12.752 27.7903 12.7715C27.9569 12.8272 28.0993 12.9573 28.1709 13.1219C28.1939 13.1708 28.2129 13.2208 28.2254 13.2735C28.2557 13.3987 28.2549 13.5336 28.2129 13.6558C28.1961 13.704 28.1724 13.7498 28.1424 13.7912L28.1329 13.804C28.0548 13.9048 27.9537 13.9841 27.8385 14.0348C27.7581 14.0718 27.6736 14.0983 27.5868 14.1138C27.5295 14.1122 27.473 14.0994 27.4202 14.0762C27.36 14.0516 27.301 14.024 27.2434 13.9935C27.1443 13.9256 27.068 13.8279 27.025 13.7137C26.9666 13.5671 26.9546 13.4053 26.9906 13.2513C27.0082 13.1787 27.0381 13.1095 27.0798 13.0482C27.1762 12.8903 27.3402 12.7775 27.5196 12.7497C27.5503 12.7448 27.5813 12.7426 27.612 12.7433ZM7.95787 12.8524C8.02436 12.8527 8.09084 12.8655 8.15185 12.8922C8.29176 12.9524 8.40756 13.0719 8.46235 13.2178C8.49121 13.2964 8.50071 13.3814 8.49559 13.4645C8.48817 13.5872 8.44756 13.7053 8.37833 13.8055C8.30168 13.8873 8.20656 13.9484 8.10144 13.9833C7.98198 14.025 7.85376 14.0401 7.7281 14.0277C7.63011 14.0127 7.54159 13.9592 7.48116 13.8784C7.40351 13.7826 7.35644 13.6644 7.34637 13.54C7.3316 13.3992 7.35941 13.2572 7.426 13.1332C7.46801 13.058 7.52792 12.9922 7.60171 12.949C7.70874 12.8839 7.83367 12.8509 7.95787 12.8524Z" fill="#444444"/>
<path d="M17.3458 32.9102C17.1814 32.7508 16.6115 31.4777 15.5383 28.8812L13.9726 25.071H9.31397C6.61734 25.071 4.43322 25.0315 4.13367 24.9717C3.36034 24.8225 2.31631 24.2555 1.75558 23.6783C1.18572 23.0918 0.634846 22.0669 0.47996 21.3108C0.402882 20.9528 0.374023 18.1871 0.374023 12.5071C0.374023 5.38409 0.393019 4.14071 0.518682 3.63351C0.98261 1.80284 2.46134 0.400047 4.23997 0.111667C5.10938 -0.0372224 30.2488 -0.0372224 31.1091 0.111667C32.8392 0.390271 34.2697 1.66373 34.7818 3.3549C34.9656 3.98167 34.9754 4.27005 34.9754 12.477C34.9754 17.819 34.9364 21.1021 34.8688 21.3803C34.6079 22.5643 33.622 23.8772 32.5784 24.4544C31.5055 25.0413 31.2443 25.071 26.1217 25.071H21.4729L19.9073 28.8812C19.0371 30.9702 18.2641 32.7508 18.1768 32.8403C17.8872 33.1388 17.6165 33.1588 17.3458 32.9102ZM29.3692 19.3511C29.6593 19.1819 30.0362 18.8635 30.2101 18.6247C30.7804 17.8491 30.8191 17.5607 30.8191 13.7106V10.2486H28.7895V10.8753L28.5769 10.6764C28.045 10.179 27.3301 10.0098 26.5086 10.179C24.9619 10.5072 24.1502 11.6416 24.1502 13.4719C24.1502 15.004 24.556 15.7699 25.6578 16.3271C26.1509 16.5756 26.4023 16.6452 26.837 16.6452C27.5329 16.6354 28.1129 16.476 28.4512 16.1978L28.7215 15.9786L28.654 16.4166C28.5188 17.2821 28.0742 17.71 27.3009 17.71H26.8563V19.7192L27.8518 19.6794C28.7219 19.6493 28.8958 19.6098 29.3692 19.3511ZM9.71032 16.297C10.2612 16.0383 10.7927 15.4811 11.044 14.9341C11.3147 14.3073 11.3246 12.8252 11.0634 12.0492C10.8701 11.4626 10.2805 10.7261 9.80675 10.4678C8.82118 9.94026 7.56455 10.0297 6.87852 10.6764L6.65606 10.8757V7.56292H4.53002L4.54902 11.9694L4.57824 16.3666L5.6219 16.3967C6.60784 16.4267 6.65606 16.4166 6.65606 16.2173C6.65606 15.9688 6.68528 15.9688 7.12985 16.2673C7.80638 16.7347 8.79196 16.7448 9.71032 16.2974V16.297ZM21.0284 16.3967C21.6179 16.1778 22.4201 15.4717 22.739 14.8844C23.7926 12.9944 22.594 10.7065 20.3131 10.2486C18.8826 9.96019 17.3359 10.6764 16.6597 11.9499C16.4468 12.3676 16.3697 12.6462 16.3405 13.2433C16.3021 13.9095 16.331 14.0686 16.5629 14.6058C16.8431 15.2525 17.4809 15.959 18.061 16.2673C18.902 16.7147 20.0618 16.7647 21.0284 16.3967ZM14.9487 13.0042L14.9198 9.60225L14.6009 8.93563C14.1564 8.01071 13.4506 7.51291 12.2908 7.31401L11.8754 7.24446V8.34872C11.8754 9.29357 11.8948 9.45299 12.03 9.45299C12.1169 9.45299 12.3295 9.60225 12.5132 9.79137L12.842 10.1294V16.4166H14.9776L14.9487 13.0042Z" fill="white"/>
<path d="M27.0781 14.5763C26.4403 14.2977 26.189 13.4025 26.566 12.7655C27.0883 11.8805 28.3059 11.9598 28.7117 12.9047C29.0113 13.6115 28.7117 14.3372 27.987 14.6161C27.629 14.7553 27.4547 14.7455 27.0781 14.5763ZM7.25519 14.4669C6.53994 13.9593 6.61702 12.7655 7.39035 12.3877C8.45337 11.8703 9.46853 12.9547 8.92716 14.0292C8.65648 14.5763 7.73812 14.815 7.25519 14.4669ZM19.0562 14.5267C18.9122 14.4379 18.7874 14.3199 18.6893 14.1798C18.5913 14.0397 18.522 13.8805 18.4858 13.7119C18.4497 13.5433 18.4473 13.3689 18.4789 13.1993C18.5105 13.0297 18.5754 12.8685 18.6697 12.7257C18.9499 12.2982 19.2494 12.1392 19.7908 12.1392C20.1484 12.1392 20.2642 12.1888 20.5835 12.5268C20.9024 12.8554 20.9601 12.9746 20.9601 13.3427C20.9601 14.4071 19.9069 15.0636 19.0562 14.5267Z" fill="white"/>
</svg>
