<svg width="32" height="31" viewBox="0 0 32 31" fill="none" xmlns="http://www.w3.org/2000/svg">
<rect x="1.16699" y="0.5" width="30" height="30" rx="15" stroke="#3A3A3A"/>
<path d="M22.7434 21.5745C22.2715 22.0464 21.5075 22.0464 21.0355 21.5745L18.9052 19.4435C18.028 20.0043 16.9931 20.3398 15.8744 20.3398C12.7627 20.3398 10.2393 17.8177 10.2393 14.7055C10.2393 11.5934 12.7617 9.07129 15.8744 9.07129C18.987 9.07129 21.5085 11.5934 21.5085 14.7055C21.5085 15.8231 21.173 16.8588 20.6121 17.7358L22.7424 19.8659C23.2144 20.3377 23.2144 21.1016 22.7424 21.5725L22.7434 21.5745ZM15.8744 10.6819C13.6521 10.6819 11.8491 12.4846 11.8491 14.7065C11.8491 16.9285 13.6511 18.7301 15.8744 18.7301C18.0977 18.7301 19.8996 16.9285 19.8996 14.7065C19.8996 12.4846 18.0977 10.6819 15.8744 10.6819Z" fill="#3A3A3A"/>
</svg>
