<svg width="36" height="36" viewBox="0 0 36 36" fill="none" xmlns="http://www.w3.org/2000/svg">
<rect x="0.5" y="0.5" width="35" height="35" rx="17.5" stroke="#3A3A3A"/>
<path d="M24.9443 25.5092C24.4049 26.0537 23.5318 26.0537 22.9924 25.5092L20.5577 23.0503C19.5552 23.6974 18.3725 24.0845 17.094 24.0845C13.5378 24.0845 10.6538 21.1744 10.6538 17.5834C10.6538 13.9925 13.5366 11.0824 17.094 11.0824C20.6513 11.0824 23.5329 13.9925 23.5329 17.5834C23.5329 18.8729 23.1495 20.068 22.5085 21.08L24.9432 23.5377C25.4825 24.0821 25.4825 24.9636 24.9432 25.5069L24.9443 25.5092ZM17.094 12.9408C14.5542 12.9408 12.4937 15.0208 12.4937 17.5846C12.4937 20.1484 14.553 22.2272 17.094 22.2272C19.6349 22.2272 21.6942 20.1484 21.6942 17.5846C21.6942 15.0208 19.6349 12.9408 17.094 12.9408Z" fill="#3A3A3A"/>
</svg>
