<svg width="36" height="36" viewBox="0 0 36 36" fill="none" xmlns="http://www.w3.org/2000/svg">
<rect x="0.5" y="0.5" width="35" height="35" rx="17.5" stroke="white"/>
<path d="M24.9448 25.5092C24.4054 26.0537 23.5322 26.0537 22.9929 25.5092L20.5582 23.0503C19.5557 23.6974 18.373 24.0845 17.0944 24.0845C13.5383 24.0845 10.6543 21.1744 10.6543 17.5834C10.6543 13.9925 13.5371 11.0824 17.0944 11.0824C20.6518 11.0824 23.5334 13.9925 23.5334 17.5834C23.5334 18.8729 23.15 20.068 22.5089 21.08L24.9436 23.5377C25.483 24.0821 25.483 24.9636 24.9436 25.5069L24.9448 25.5092ZM17.0944 12.9408C14.5546 12.9408 12.4942 15.0208 12.4942 17.5846C12.4942 20.1484 14.5535 22.2272 17.0944 22.2272C19.6354 22.2272 21.6947 20.1484 21.6947 17.5846C21.6947 15.0208 19.6354 12.9408 17.0944 12.9408Z" fill="white"/>
</svg>
