<svg width="31" height="31" viewBox="0 0 31 31" fill="none" xmlns="http://www.w3.org/2000/svg">
<rect x="0.5" y="0.5" width="30" height="30" rx="15" stroke="#222222"/>
<path d="M22.0755 21.5746C21.6035 22.0465 20.8395 22.0465 20.3675 21.5746L18.2372 19.4436C17.36 20.0044 16.3252 20.3399 15.2064 20.3399C12.0948 20.3399 9.57129 17.8178 9.57129 14.7056C9.57129 11.5935 12.0938 9.07141 15.2064 9.07141C18.3191 9.07141 20.8405 11.5935 20.8405 14.7056C20.8405 15.8232 20.505 16.8589 19.9441 17.736L22.0745 19.866C22.5464 20.3379 22.5464 21.1018 22.0745 21.5726L22.0755 21.5746ZM15.2064 10.6821C12.9841 10.6821 11.1812 12.4847 11.1812 14.7067C11.1812 16.9286 12.9831 18.7302 15.2064 18.7302C17.4297 18.7302 19.2316 16.9286 19.2316 14.7067C19.2316 12.4847 17.4297 10.6821 15.2064 10.6821Z" fill="#222222"/>
</svg>
