<svg width="54" height="37" viewBox="0 0 54 37" fill="none" xmlns="http://www.w3.org/2000/svg">
<path d="M30 22.5C30 18.6 30.6 15.25 31.8 12.45C33 9.55 34.55 7.2 36.45 5.4C38.35 3.5 40.5 2.15 42.9 1.35C45.4 0.45 47.85 0 50.25 0V5.25C47.65 5.25 45.2 6.15 42.9 7.95001C40.7 9.65 39.4 12 39 15C39.3 14.9 39.65 14.8 40.05 14.7C40.35 14.6 40.7 14.5 41.1 14.4C41.6 14.3 42.15 14.25 42.75 14.25C45.75 14.25 48.25 15.4 50.25 17.7C52.25 19.9 53.25 22.5 53.25 25.5C53.25 28.5 52.2 31.15 50.1 33.45C48.1 35.65 45.4 36.75 42 36.75C38.2 36.75 35.25 35.35 33.15 32.55C31.05 29.65 30 26.3 30 22.5ZM0 22.5C0 18.6 0.6 15.25 1.8 12.45C3 9.55 4.55 7.2 6.45 5.4C8.35 3.5 10.5 2.15 12.9 1.35C15.4 0.45 17.85 0 20.25 0V5.25C17.65 5.25 15.2 6.15 12.9 7.95001C10.7 9.65 9.4 12 9 15C9.3 14.9 9.65 14.8 10.05 14.7C10.35 14.6 10.7 14.5 11.1 14.4C11.6 14.3 12.15 14.25 12.75 14.25C15.75 14.25 18.25 15.4 20.25 17.7C22.25 19.9 23.25 22.5 23.25 25.5C23.25 28.5 22.2 31.15 20.1 33.45C18.1 35.65 15.4 36.75 12 36.75C8.2 36.75 5.25 35.35 3.15 32.55C1.05 29.65 0 26.3 0 22.5Z" fill="#E4E4E4"/>
</svg>
