<svg width="75" height="76" viewBox="0 0 75 76" fill="none" xmlns="http://www.w3.org/2000/svg">
<path d="M56.0162 0.5H18.9838C8.49798 0.5 0 8.99798 0 19.4838V56.5162C0 67.002 8.49798 75.5 18.9838 75.5H31.715V48.7094H22.3089V38.0023H31.715V29.8431C31.715 20.559 37.2447 15.4313 45.7066 15.4313C49.7591 15.4313 53.9967 16.1542 53.9967 16.1542V25.2711H49.3253C44.7217 25.2711 43.2896 28.1263 43.2896 31.0539V38.0023H53.563L51.9186 48.7094H43.2896V75.4955H43.3031H56.0162C66.4975 75.4955 75 66.9975 75 56.5117V19.4838C75 8.99798 66.4975 0.5 56.0162 0.5Z" fill="white"/>
</svg>
