<svg width="75" height="76" viewBox="0 0 75 76" fill="none" xmlns="http://www.w3.org/2000/svg">
<path d="M36.787 75.111C36.4307 74.7496 35.1955 71.8634 32.8692 65.9768L29.4755 57.3386H19.3777C13.5326 57.3386 8.79847 57.2491 8.1492 57.1136C6.47296 56.7752 4.21 55.4897 2.99458 54.1813C1.75938 52.8516 0.565345 50.528 0.229622 48.8138C0.0625521 48.0023 0 41.7321 0 28.8549C0 12.7063 0.0411735 9.88743 0.313552 8.73755C1.31914 4.58724 4.52434 1.40695 8.37961 0.753162C10.2641 0.415613 64.7549 0.415613 66.6196 0.753162C70.3696 1.38479 73.4702 4.27185 74.5803 8.10593C74.9786 9.52687 75 10.1807 75 28.7867C75 40.8976 74.9153 48.3407 74.7688 48.9715C74.2035 51.6557 72.0664 54.6322 69.8042 55.9407C67.4787 57.2713 66.9126 57.3386 55.8092 57.3386H45.7327L42.3391 65.9768C40.453 70.7127 38.7776 74.7496 38.5883 74.9525C37.9604 75.6293 37.3737 75.6745 36.787 75.111ZM62.8483 44.3711C63.4769 43.9875 64.2941 43.2655 64.671 42.7243C65.907 40.9658 65.9909 40.312 65.9909 31.5835V23.7346H61.5917V25.1555L61.1308 24.7046C59.978 23.5769 58.4284 23.1933 56.6477 23.5769C53.2952 24.3211 51.5358 26.8927 51.5358 31.0422C51.5358 34.5157 52.4155 36.252 54.8036 37.5153C55.8725 38.0787 56.4173 38.2364 57.3595 38.2364C58.8679 38.2142 60.1253 37.8528 60.8585 37.2221L61.4444 36.7251L61.2979 37.7182C61.005 39.6804 60.0413 40.6504 58.3651 40.6504H57.4015V45.2056L59.5591 45.1152C61.4452 45.0471 61.8221 44.9576 62.8483 44.3711ZM20.2368 37.4471C21.4308 36.8606 22.5829 35.5974 23.1277 34.3572C23.7144 32.9362 23.7358 29.5761 23.1696 27.8167C22.7508 26.487 21.4728 24.8171 20.4458 24.2316C18.3096 23.0356 15.5858 23.2385 14.0988 24.7046L13.6166 25.1564V17.6459H9.0083L9.04947 27.636L9.11281 37.6048L11.375 37.673C13.5121 37.7412 13.6166 37.7182 13.6166 37.2664C13.6166 36.7029 13.6799 36.7029 14.6435 37.3798C16.1099 38.4393 18.2462 38.4623 20.2368 37.4479V37.4471ZM44.7691 37.673C46.0471 37.1769 47.7859 35.5761 48.4771 34.2446C50.7607 29.9596 48.1628 24.7728 43.2188 23.7346C40.1181 23.0808 36.7656 24.7046 35.3 27.5917C34.8384 28.5387 34.6713 29.1703 34.608 30.5239C34.5248 32.0344 34.5874 32.3949 35.0902 33.613C35.6975 35.0791 37.0799 36.6808 38.3373 37.3798C40.16 38.3941 42.674 38.5075 44.7691 37.673ZM31.5912 29.9818L31.5286 22.2693L30.8374 20.758C29.8738 18.6611 28.344 17.5326 25.8301 17.0817L24.9298 16.924V19.4274C24.9298 21.5695 24.9718 21.9309 25.2647 21.9309C25.4532 21.9309 25.914 22.2693 26.3123 22.6981L27.0249 23.4644V37.7182H31.6538L31.5912 29.9818Z" fill="white"/>
<path d="M57.8833 33.5472C56.5008 32.9156 55.9561 30.886 56.7732 29.4421C57.9055 27.4355 60.5445 27.6154 61.4242 29.7574C62.0735 31.36 61.4242 33.0051 59.8533 33.6376C59.0773 33.9529 58.6996 33.9308 57.8833 33.5472ZM14.9163 33.2992C13.366 32.1484 13.533 29.4421 15.2093 28.5854C17.5134 27.4125 19.7138 29.8708 18.5404 32.307C17.9536 33.5472 15.9631 34.0885 14.9163 33.2992ZM40.4954 33.4347C40.1834 33.2336 39.9128 32.966 39.7003 32.6484C39.4877 32.3308 39.3376 31.9698 39.2592 31.5875C39.1808 31.2053 39.1757 30.8098 39.2442 30.4254C39.3127 30.0409 39.4534 29.6756 39.6577 29.3517C40.265 28.3825 40.9142 28.022 42.0877 28.022C42.8629 28.022 43.1139 28.1345 43.8059 28.9008C44.4971 29.6458 44.6222 29.916 44.6222 30.7505C44.6222 33.1636 42.3395 34.6519 40.4954 33.4347Z" fill="white"/>
</svg>
