<svg width="95" height="75" viewBox="0 0 95 75" fill="none" xmlns="http://www.w3.org/2000/svg">
<path d="M57.5 0C73.9373 0 82.1557 0.000327602 87.6875 4.54004C88.7002 5.37113 89.6289 6.29982 90.46 7.3125C94.9997 12.8443 95 21.0627 95 37.5C95 53.9373 94.9997 62.1558 90.46 67.6875C89.6289 68.7002 88.7002 69.6289 87.6875 70.46C82.1557 74.9997 73.9373 75 57.5 75H37.5C21.0627 75 12.8443 74.9997 7.3125 70.46C6.29982 69.6289 5.37113 68.7002 4.54004 67.6875C0.000327602 62.1558 0 53.9373 0 37.5C0 21.0627 0.000327602 12.8443 4.54004 7.3125C5.37113 6.29982 6.29982 5.37113 7.3125 4.54004C12.8443 0.000327602 21.0627 0 37.5 0H57.5ZM39.4971 22.4766C39.1638 22.287 38.75 22.5276 38.75 22.9111V51.1025C38.7502 51.4858 39.1639 51.7264 39.4971 51.5371L64.2373 37.4414C64.5739 37.2496 64.5739 36.7641 64.2373 36.5723L39.4971 22.4766Z" fill="white"/>
</svg>
