<svg width="58" height="57" viewBox="0 0 58 57" fill="none" xmlns="http://www.w3.org/2000/svg">
<rect x="1" y="1" width="56" height="55" rx="27.5" stroke="white" stroke-width="2"/>
<g clip-path="url(#clip0_382_6320)">
<path d="M19.2512 43.5366H12V31.1763H19.2512V43.5366ZM13.5668 41.9931H17.6844V32.7198H13.5668V41.9931Z" fill="white"/>
<path d="M31.2093 45L18.2109 40.6041L18.7186 39.147L31.0714 43.3268L42.7411 37.1096C42.1958 36.4737 41.0489 35.6587 38.9932 36.27C37.0128 36.8627 31.0463 39.1038 30.9837 39.1285L30.4259 37.6838C30.6703 37.5912 36.5051 35.3994 38.5357 34.7944C42.0141 33.7571 44.0008 35.8378 44.5649 37.0788L44.8594 37.7332L31.203 45.0062L31.2093 45Z" fill="white"/>
<path d="M29.9181 39.326C29.5045 39.326 29.0846 39.2396 28.6835 39.0544L23.726 36.7762L24.3904 35.3747L29.3478 37.6529C29.9745 37.9369 30.7141 37.7208 31.0713 37.1404C31.2781 36.8132 31.3282 36.4304 31.2154 36.06C31.1026 35.6895 30.8457 35.3994 30.4947 35.2327L25.0484 32.7137H17.8599V31.1702H25.3994L31.159 33.8373C31.9111 34.1831 32.4814 34.8375 32.7133 35.6216C32.9515 36.4057 32.8387 37.2577 32.4 37.9554C31.8547 38.8321 30.8958 39.326 29.9118 39.326H29.9181Z" fill="white"/>
<path d="M16.4059 38.7581H14.8391V40.7461H16.4059V38.7581Z" fill="white"/>
<path d="M35.8471 31.9976C30.2504 31.9976 25.6941 27.5091 25.6941 21.9957C25.6941 16.4823 30.2504 12 35.8471 12C41.4438 12 46.0001 16.4885 46.0001 22.0019C46.0001 27.5152 41.4438 32.0037 35.8471 32.0037V31.9976ZM35.8471 13.5435C31.1153 13.5435 27.2609 17.3343 27.2609 22.0019C27.2609 26.6694 31.109 30.4602 35.8471 30.4602C40.5852 30.4602 44.4333 26.6694 44.4333 22.0019C44.4333 17.3343 40.5852 13.5435 35.8471 13.5435Z" fill="white"/>
<path d="M35.8471 26.867L31.5352 22.6193C30.4385 21.5388 30.4385 19.7792 31.5352 18.6988C32.632 17.6183 34.4182 17.6183 35.515 18.6988L35.8471 19.026L36.1793 18.6988C37.2761 17.6183 39.0622 17.6183 40.159 18.6988C41.2558 19.7792 41.2558 21.5388 40.159 22.6193L39.0497 21.5265C39.5385 21.0449 39.5385 20.267 39.0497 19.7854C38.5608 19.3038 37.7712 19.3038 37.2823 19.7854L35.8408 21.2054L34.3994 19.7854C33.9105 19.3038 33.1208 19.3038 32.632 19.7854C32.1432 20.267 32.1432 21.0449 32.632 21.5265L35.8408 24.6814L37.7085 22.8415L38.8178 23.9343L35.8408 26.867H35.8471Z" fill="white"/>
</g>
<defs>
<clipPath id="clip0_382_6320">
<rect width="34" height="33" fill="white" transform="translate(12 12)"/>
</clipPath>
</defs>
</svg>
