<svg width="75" height="76" viewBox="0 0 75 76" fill="none" xmlns="http://www.w3.org/2000/svg">
<path d="M37.5034 0.5C27.3192 0.5 26.0411 0.544633 22.0411 0.726599C18.0488 0.909329 15.3239 1.54144 12.9395 2.46882C10.4731 3.42634 8.38073 4.70774 6.29632 6.79292C4.21038 8.87733 2.92916 10.9694 1.96815 13.4353C1.0384 15.8203 0.4056 18.546 0.226054 22.5367C0.0468888 26.5365 0 27.8156 0 38C0 48.1844 0.0457447 49.4586 0.226816 53.4584C0.410174 57.4506 1.04259 60.1759 1.96891 62.5602C2.92763 65.0264 4.20885 67.1189 6.29403 69.2029C8.37768 71.2888 10.4697 72.5733 12.9346 73.5312C15.3209 74.4586 18.0465 75.0907 22.0377 75.2734C26.038 75.4554 27.3154 75.5 37.4992 75.5C47.6842 75.5 48.9582 75.4554 52.9585 75.2734C56.9508 75.0903 59.6791 74.4586 62.0651 73.5312C64.5307 72.5737 66.6197 71.2888 68.7033 69.2029C70.7893 67.1189 72.0705 65.0264 73.0315 62.5609C73.9532 60.1759 74.586 57.4498 74.7736 53.4591C74.9535 49.4593 75 48.1844 75 38C75 27.8156 74.9535 26.5376 74.7736 22.5374C74.586 18.5452 73.9532 15.8203 73.0315 13.436C72.0705 10.9694 70.7893 8.87733 68.7033 6.79292C66.6174 4.70698 64.5314 3.42558 62.0628 2.46882C59.6719 1.54144 56.9451 0.909329 52.9532 0.726599C48.9532 0.544633 47.6796 0.5 37.492 0.5H37.5034ZM34.1397 7.25794C35.1381 7.25603 36.2519 7.25794 37.5038 7.25794C47.5165 7.25794 48.7032 7.2938 52.657 7.47348C56.3131 7.64057 58.2976 8.2517 59.6196 8.76479C61.3694 9.44459 62.6174 10.2571 63.9291 11.5694C65.2416 12.8817 66.0539 14.1319 66.7352 15.8821C67.2486 17.202 67.8601 19.1865 68.0267 22.843C68.2062 26.7959 68.2455 27.9834 68.2455 37.9916C68.2455 47.999 68.2062 49.1866 68.0267 53.1399C67.8593 56.796 67.2486 58.7804 66.7352 60.1007C66.0555 61.8506 65.2416 63.0969 63.9291 64.4084C62.6166 65.7207 61.3705 66.5333 59.6196 67.2131C58.2992 67.7288 56.3131 68.3384 52.657 68.5055C48.7039 68.6848 47.5165 68.7241 37.5038 68.7241C27.4904 68.7241 26.3037 68.6852 22.3503 68.5055C18.6942 68.3365 16.7096 67.7258 15.3872 67.2123C13.6371 66.5329 12.3872 65.7203 11.0747 64.4077C9.76183 63.0954 8.94948 61.8483 8.26828 60.0977C7.7548 58.7774 7.14335 56.7929 6.97676 53.1368C6.79722 49.1835 6.761 47.996 6.761 37.9821C6.761 27.9682 6.79722 26.7867 6.97676 22.8334C7.14411 19.1773 7.7548 17.1929 8.26828 15.871C8.94796 14.1212 9.76183 12.8711 11.0747 11.5584C12.3872 10.2461 13.6371 9.43353 15.3872 8.7522C16.7089 8.23682 18.6942 7.62722 22.3503 7.45898C25.8097 7.30296 27.1504 7.25603 34.1397 7.2484V7.25794ZM57.5211 13.4845C55.0368 13.4845 53.021 15.4976 53.021 17.9829C53.021 20.4671 55.0368 22.4829 57.5211 22.4829C60.0054 22.4829 62.0212 20.4671 62.0212 17.9829C62.0212 15.4983 60.0054 13.4826 57.5211 13.4826V13.4845ZM37.5034 18.7421C26.8679 18.7421 18.2451 27.3647 18.2451 38C18.2451 48.6349 26.8679 57.2537 37.5034 57.2537C48.1386 57.2537 56.758 48.6349 56.758 38C56.758 27.3647 48.1378 18.7421 37.5027 18.7421H37.5034ZM37.5034 25.5C44.4066 25.5 50.0034 31.0963 50.0034 38C50.0034 44.9029 44.4066 50.5 37.5034 50.5C30.5995 50.5 25.003 44.9029 25.003 38C25.003 31.096 30.5991 25.5 37.5034 25.5Z" fill="white"/>
</svg>
