<svg width="58" height="57" viewBox="0 0 58 57" fill="none" xmlns="http://www.w3.org/2000/svg">
<rect x="1" y="1" width="56" height="55" rx="27.5" stroke="white" stroke-width="2"/>
<g clip-path="url(#clip0_382_6394)">
<path d="M19.2512 43.5371H12V31.1768H19.2512V43.5371ZM13.5668 41.9936H17.6844V32.7203H13.5668V41.9936Z" fill="white"/>
<path d="M31.2093 45L18.2109 40.6041L18.7186 39.147L31.0714 43.3268L42.7411 37.1096C42.1958 36.4737 41.0489 35.6587 38.9932 36.27C37.0128 36.8627 31.0463 39.1038 30.9837 39.1285L30.4259 37.6838C30.6703 37.5912 36.5051 35.3994 38.5357 34.7944C42.0141 33.7571 44.0008 35.8378 44.5649 37.0788L44.8594 37.7332L31.203 45.0062L31.2093 45Z" fill="white"/>
<path d="M29.9181 39.3263C29.5045 39.3263 29.0846 39.2398 28.6835 39.0546L23.726 36.7764L24.3904 35.3749L29.3478 37.6531C29.9745 37.9371 30.7141 37.721 31.0713 37.1407C31.2781 36.8134 31.3282 36.4307 31.2154 36.0602C31.1026 35.6898 30.8457 35.3996 30.4947 35.2329L25.0484 32.7139H17.8599V31.1704H25.3994L31.159 33.8376C31.9111 34.1833 32.4814 34.8378 32.7133 35.6219C32.9515 36.406 32.8387 37.258 32.4 37.9556C31.8547 38.8323 30.8958 39.3263 29.9118 39.3263H29.9181Z" fill="white"/>
<path d="M16.4059 38.7583H14.8391V40.7463H16.4059V38.7583Z" fill="white"/>
<path d="M35.8471 31.9976C30.2504 31.9976 25.6941 27.5091 25.6941 21.9957C25.6941 16.4823 30.2504 12 35.8471 12C41.4438 12 46.0001 16.4885 46.0001 22.0019C46.0001 27.5152 41.4438 32.0037 35.8471 32.0037V31.9976ZM35.8471 13.5435C31.1153 13.5435 27.2609 17.3343 27.2609 22.0019C27.2609 26.6694 31.109 30.4602 35.8471 30.4602C40.5852 30.4602 44.4333 26.6694 44.4333 22.0019C44.4333 17.3343 40.5852 13.5435 35.8471 13.5435Z" fill="white"/>
<path d="M35.8471 26.8672L31.5352 22.6195C30.4385 21.539 30.4385 19.7795 31.5352 18.699C32.632 17.6186 34.4182 17.6186 35.515 18.699L35.8471 19.0262L36.1793 18.699C37.2761 17.6186 39.0622 17.6186 40.159 18.699C41.2558 19.7795 41.2558 21.539 40.159 22.6195L39.0497 21.5267C39.5385 21.0451 39.5385 20.2672 39.0497 19.7856C38.5608 19.3041 37.7712 19.3041 37.2823 19.7856L35.8408 21.2057L34.3994 19.7856C33.9105 19.3041 33.1208 19.3041 32.632 19.7856C32.1432 20.2672 32.1432 21.0451 32.632 21.5267L35.8408 24.6816L37.7085 22.8418L38.8178 23.9346L35.8408 26.8672H35.8471Z" fill="white"/>
</g>
<defs>
<clipPath id="clip0_382_6394">
<rect width="34" height="33" fill="white" transform="translate(12 12)"/>
</clipPath>
</defs>
</svg>
