<svg width="27" height="32" viewBox="0 0 27 32" fill="none" xmlns="http://www.w3.org/2000/svg">
<g clip-path="url(#clip0_69_1202)">
<path d="M16.8596 28.7282C16.8596 30.5349 15.3551 32 13.4999 32C11.6446 32 10.1401 30.5349 10.1401 28.7282H16.8596Z" fill="#E2E2E2"/>
<path d="M13.501 1.5C14.0392 1.5 14.4081 1.91521 14.4082 2.34375V4.73926L15.5615 5.01367C19.2454 5.88826 21.9654 9.03318 22.1318 12.7822L22.1406 13.1465V22.6748L22.5879 23.1152L24.999 25.4883H2.00098L4.41406 23.1152L4.8623 22.6748V13.1465C4.86248 9.23682 7.63843 5.91528 11.4404 5.01367L12.5947 4.74023V2.34375C12.5948 1.91531 12.9629 1.50018 13.501 1.5Z" stroke="#E2E2E2" stroke-width="3"/>
</g>
<defs>
<clipPath id="clip0_69_1202">
<rect width="27" height="32" fill="white"/>
</clipPath>
</defs>
</svg>
