<svg width="52" height="47" viewBox="0 0 52 47" fill="none" xmlns="http://www.w3.org/2000/svg">
<g clip-path="url(#clip0_350_5202)">
<path d="M10.8674 18.975H0.231897C0.103824 18.975 0 19.0787 0 19.2067V46.7682C0 46.8962 0.103824 47 0.231897 47H10.8674C10.9955 47 11.0993 46.8962 11.0993 46.7682V19.2067C11.0993 19.0787 10.9955 18.975 10.8674 18.975Z" fill="#FF8330"/>
<path d="M14.3125 16.9314L29.5014 2.33572C29.5014 2.33572 32.4223 -2.91855 34.7594 2.33572C37.0965 7.59074 31.2546 16.9322 31.2546 16.9322H48.7805C48.7805 16.9322 54.0378 19.8514 51.1176 27.4414C48.1966 35.0314 45.2756 44.9572 42.9393 45.5407C40.6022 46.1243 17.8189 45.5407 17.8189 45.5407C17.8189 45.5407 14.314 46.1243 14.314 42.6214V16.9314H14.3125Z" fill="#FF8330"/>
</g>
<defs>
<clipPath id="clip0_350_5202">
<rect width="52" height="47" fill="white"/>
</clipPath>
</defs>
</svg>
