<svg width="52" height="47" viewBox="0 0 52 47" fill="none" xmlns="http://www.w3.org/2000/svg">
<g clip-path="url(#clip0_350_5207)">
<path d="M7.38232 8.85629C7.34548 4.99615 9.42275 1.69704 12.8388 0.409995C16.6364 -1.02166 20.6608 1.52162 22.0528 4.5345C23.4393 1.52311 27.4638 -1.0142 31.2646 0.42043C34.6779 1.70847 36.7483 5.01106 36.7115 8.86822C36.6706 12.9957 34.7998 16.8017 32.4092 19.9969C31.9099 19.7162 31.4356 19.4483 31.0063 19.2078L28.8785 18.0107C28.1905 17.6221 27.4743 17.4248 26.7453 17.4248C24.7736 17.4248 23.0269 18.8952 22.5007 21.0007C22.0083 22.9676 22.7618 24.9294 24.4179 25.9993C24.7272 26.1981 25.1946 26.4968 25.7362 26.8406C23.6303 28.5635 22.0646 29.5454 22.0646 29.5454H22.0142C22.0142 29.5454 7.48873 20.4467 7.38232 8.85629Z" fill="#FF8330"/>
<path d="M42.3725 28.0725C40.7613 27.1204 29.0885 20.5723 27.9658 19.9373C25.2255 18.3878 22.8854 22.4925 25.4265 24.1318C27.0881 25.2047 33.0816 28.9839 33.0816 28.9839C32.4909 30.4587 31.3709 31.8829 28.8998 31.8829L21.0586 31.8949L13.5399 25.7588C12.7741 25.1416 11.6895 25.3314 11.1166 26.1817C11.0811 26.2339 11.0579 26.2895 11.0284 26.3447L7.87834 23.7924C7.11255 23.1753 6.02798 23.3651 5.45501 24.2153C5.30267 24.4424 5.20535 24.6919 5.15397 24.9493L4.40682 24.3038C3.65786 23.6613 2.56965 23.8153 1.97212 24.6462C1.6438 25.1018 1.54148 25.6669 1.63288 26.1911C1.15949 26.2299 0.700201 26.4719 0.380061 26.9146C-0.217473 27.7425 -0.0987846 28.9352 0.647905 29.5792L0.646541 29.5807C0.646541 29.5807 8.9338 36.8299 10.092 37.779C12.9897 40.1518 15.2975 42.3249 17.528 42.3249L36.8146 42.3085C40.0815 42.3085 41.2657 44.0388 43.9764 47.001L51.9994 39.4035C48.5247 33.9998 46.3038 30.3986 42.3721 28.073L42.3725 28.0725Z" fill="#FF8330"/>
</g>
<defs>
<clipPath id="clip0_350_5207">
<rect width="52" height="47" fill="white"/>
</clipPath>
</defs>
</svg>
