<svg width="62" height="61" viewBox="0 0 62 61" fill="none" xmlns="http://www.w3.org/2000/svg">
<rect x="1.82274" y="0.983871" width="59.0323" height="59.0323" rx="29.5161" stroke="#6B6B6B" stroke-width="1.96774"/>
<path d="M44.2798 42.4527C43.3511 43.3813 41.8477 43.3813 40.9191 42.4527L36.7271 38.2594C35.001 39.3629 32.9647 40.0231 30.7633 40.0231C24.6404 40.0231 19.6748 35.0603 19.6748 28.9363C19.6748 22.8124 24.6384 17.8496 30.7633 17.8496C36.8882 17.8496 41.8498 22.8124 41.8498 28.9363C41.8498 31.1354 41.1895 33.1734 40.0858 34.8992L44.2778 39.0905C45.2065 40.0191 45.2065 41.5222 44.2778 42.4488L44.2798 42.4527ZM30.7633 21.0189C26.3903 21.0189 22.8426 24.5661 22.8426 28.9383C22.8426 33.3106 26.3883 36.8557 30.7633 36.8557C35.1382 36.8557 38.6839 33.3106 38.6839 28.9383C38.6839 24.5661 35.1382 21.0189 30.7633 21.0189Z" fill="#6B6B6B"/>
</svg>
