<svg width="113" height="135" viewBox="0 0 113 135" fill="none" xmlns="http://www.w3.org/2000/svg">
<g clip-path="url(#clip0_263_417)">
<path d="M112.655 62.3884L106.374 49.2771L108.649 34.9466C108.872 33.5576 108.235 32.1785 107.031 31.439L94.5801 23.7541L88.6631 10.483C88.0865 9.20381 86.7919 8.34438 85.3758 8.39435L70.6895 8.58422L58.4508 0.579557C57.2674 -0.18993 55.73 -0.18993 54.5466 0.579557L42.2978 8.58422L27.6115 8.39435C27.6115 8.39435 27.5811 8.39435 27.5609 8.39435C26.1651 8.39435 24.8907 9.2138 24.3243 10.483L18.4072 23.7541L5.95619 31.439C4.75256 32.1785 4.11534 33.5676 4.33786 34.9466L6.62376 49.2771L0.342606 62.3884C-0.264268 63.6575 -0.0417474 65.1565 0.898908 66.2058L10.6595 77.0386L12.561 91.419C12.7431 92.8081 13.7545 93.9573 15.12 94.3371L29.2602 98.2444L30.0086 99.1239V131.502C30.0086 132.731 30.656 133.861 31.718 134.5C32.78 135.13 34.0949 135.17 35.1974 134.6L56.5088 123.538L77.8202 134.6C78.3361 134.87 78.9025 135 79.4689 135C80.1061 135 80.7332 134.83 81.2996 134.5C82.3617 133.871 83.009 132.731 83.009 131.502V99.1339L83.7575 98.2544L97.8977 94.347C99.2631 93.9673 100.275 92.8181 100.457 91.429L102.348 77.0486L112.109 66.2158C113.049 65.1665 113.272 63.6675 112.665 62.3983L112.655 62.3884ZM75.9086 125.716L58.1373 116.492C57.1056 115.953 55.8716 115.953 54.85 116.492L37.0787 125.716V107.418L38.7173 109.337C39.6276 110.406 41.1043 110.836 42.4597 110.426L56.4886 106.159L70.5175 110.426C70.8614 110.526 71.2154 110.576 71.5593 110.576C72.5809 110.576 73.5822 110.137 74.27 109.337L75.9086 107.418V125.716ZM96.3299 73.1911C95.8545 73.7108 95.5511 74.3704 95.46 75.0699L93.7305 88.2311L80.7939 91.8087C80.1061 91.9986 79.4993 92.3884 79.0441 92.918L70.386 103.051L57.5506 99.1538C56.8729 98.944 56.1447 98.944 55.467 99.1538L42.6316 103.051L33.9736 92.918C33.5184 92.3784 32.9014 91.9986 32.2237 91.8087L19.2872 88.2311L17.5475 75.0699C17.4565 74.3704 17.153 73.7208 16.6776 73.2011L7.74647 63.2878L13.4916 51.2957C13.795 50.6562 13.8961 49.9466 13.7849 49.2571L11.7013 36.1458L23.0903 29.1205C23.6972 28.7508 24.1725 28.2111 24.4557 27.5616L29.8772 15.4197L43.3093 15.5896C44.0376 15.5896 44.7152 15.3997 45.312 15.0099L56.5088 7.68482L67.7057 15.0099C68.3024 15.3997 68.9902 15.5995 69.7083 15.5896L83.1405 15.4197L88.5518 27.5616C88.835 28.2011 89.3104 28.7408 89.9173 29.1205L101.306 36.1458L99.2227 49.2571C99.1114 49.9466 99.2227 50.6562 99.516 51.2957L105.261 63.2878L96.3299 73.2011V73.1911Z" fill="#FF944C"/>
<path d="M56.499 19.447C35.8855 19.447 19.1055 36.016 19.1055 56.3924C19.1055 76.7688 35.8754 93.3378 56.499 93.3378C77.1227 93.3378 93.8926 76.7688 93.8926 56.3924C93.8926 36.016 77.1227 19.447 56.499 19.447ZM56.499 86.3324C39.7898 86.3324 26.1857 72.9014 26.1857 56.3824C26.1857 39.8634 39.7797 26.4324 56.499 26.4324C73.2184 26.4324 86.8124 39.8634 86.8124 56.3824C86.8124 72.9014 73.2184 86.3324 56.499 86.3324Z" fill="#FF944C"/>
<path d="M56.5009 30.4597C42.037 30.4597 30.2637 42.092 30.2637 56.3824C30.2637 70.6729 42.037 82.3052 56.5009 82.3052C70.9647 82.3052 82.7381 70.6729 82.7381 56.3824C82.7381 42.092 70.9647 30.4597 56.5009 30.4597ZM56.5009 76.3191C45.3748 76.3191 36.3324 67.3751 36.3324 56.3924C36.3324 45.4098 45.385 36.4657 56.5009 36.4657C67.6168 36.4657 76.6693 45.4098 76.6693 56.3924C76.6693 67.3751 67.6168 76.3191 56.5009 76.3191Z" fill="#FF944C"/>
</g>
<defs>
<clipPath id="clip0_263_417">
<rect width="113" height="135" fill="white"/>
</clipPath>
</defs>
</svg>
