<svg width="114" height="111" viewBox="0 0 114 111" fill="none" xmlns="http://www.w3.org/2000/svg">
<g clip-path="url(#clip0_263_395)">
<path d="M63.742 50.8726H21.3223V56.9293H63.742V50.8726Z" fill="#FF944C"/>
<path d="M63.742 65.6345H21.3223V71.6913H63.742V65.6345Z" fill="#FF944C"/>
<path d="M52.5951 36.1105H21.3223V42.1672H52.5951V36.1105Z" fill="#FF944C"/>
<path d="M70.8319 80.4065H21.3223V86.4632H70.8319V80.4065Z" fill="#FF944C"/>
<path d="M112.605 84.0646L106.887 77.658C109.632 74.2099 111.282 69.8422 111.282 65.0848C111.282 55.52 104.63 47.5143 95.7305 45.4354V7.80578C95.7305 3.5081 92.2502 0 87.9744 0H27.3776C27.3776 0 27.3378 0 27.3179 0C26.9003 0 26.4926 0.0899514 26.1048 0.23987C26.0551 0.25986 26.0054 0.279849 25.9556 0.309833C25.8164 0.3698 25.6772 0.449757 25.538 0.529714C25.4883 0.559697 25.4386 0.589681 25.3988 0.619665C25.2298 0.7396 25.0707 0.86953 24.9215 1.01945L1.52402 24.5367C1.37487 24.6867 1.2456 24.8466 1.12627 25.0165C1.09644 25.0665 1.06661 25.1164 1.02684 25.1664C0.947288 25.2963 0.877682 25.4363 0.808076 25.5662C0.788189 25.6261 0.758358 25.6761 0.73847 25.7261C0.668865 25.916 0.609202 26.1059 0.569428 26.3058C0.569428 26.3058 0.569428 26.3058 0.569428 26.3158C0.529653 26.5157 0.509766 26.7256 0.509766 26.9254C0.509766 26.9454 0.509766 26.9754 0.509766 26.9954V103.174C0.509766 107.472 3.99005 110.97 8.26584 110.97H87.9843C92.2601 110.97 95.7404 107.472 95.7404 103.174V84.7242C97.8683 84.2245 99.8571 83.3949 101.667 82.2755L107.424 88.722C108.11 89.4916 109.065 89.8814 110.02 89.8814C110.845 89.8814 111.68 89.5816 112.346 88.9819C113.778 87.6926 113.898 85.4838 112.615 84.0446L112.605 84.0646ZM104.332 65.0948C104.332 72.3709 98.4451 78.2777 91.216 78.2777C83.987 78.2777 78.0904 72.3609 78.0904 65.0948C78.0904 57.8287 83.977 51.9119 91.216 51.9119C98.455 51.9119 104.332 57.8287 104.332 65.0948ZM23.8973 11.9435V23.5173H12.3825L23.8973 11.9435ZM87.9744 104.004H8.25589C7.81837 104.004 7.4604 103.634 7.4604 103.204V30.5135H24.3149C27.9245 30.5135 30.8579 27.5651 30.8579 23.9371V6.99622H87.9744C88.4119 6.99622 88.7699 7.36602 88.7699 7.80578V45.0756C78.8361 46.285 71.1099 54.7904 71.1099 65.0948C71.1099 75.3992 78.8361 83.9046 88.7699 85.114V103.194C88.7699 103.634 88.402 103.994 87.9744 103.994V104.004Z" fill="#FF944C"/>
</g>
<defs>
<clipPath id="clip0_263_395">
<rect width="113" height="111" fill="white" transform="translate(0.5)"/>
</clipPath>
</defs>
</svg>
