<svg width="72" height="63" viewBox="0 0 72 63" fill="none" xmlns="http://www.w3.org/2000/svg">
<g clip-path="url(#clip0_256_15)">
<path d="M32.1227 36.018H14.3306C13.0032 36.018 11.9316 34.9427 11.9316 33.6106C11.9316 32.2785 13.0032 31.2031 14.3306 31.2031H32.1227C33.4501 31.2031 34.5216 32.2785 34.5216 33.6106C34.5216 34.9427 33.4501 36.018 32.1227 36.018Z" fill="#FF9853"/>
<path d="M52.4576 50.4626H14.3306C13.0032 50.4626 11.9316 49.3873 11.9316 48.0552C11.9316 46.723 13.0032 45.6477 14.3306 45.6477H52.4576C53.785 45.6477 54.8566 46.723 54.8566 48.0552C54.8566 49.3873 53.785 50.4626 52.4576 50.4626Z" fill="#FF9853"/>
<path d="M64.7712 62.5H2.39893C1.07152 62.5 0 61.4246 0 60.0925V21.5732C0 20.2411 1.07152 19.1658 2.39893 19.1658H40.8378C42.1653 19.1658 43.2368 20.2411 43.2368 21.5732C43.2368 22.9054 42.1653 23.9807 40.8378 23.9807H4.79787V57.6851H62.3723V23.9807H61.5007C60.1733 23.9807 59.1017 22.9054 59.1017 21.5732C59.1017 20.2411 60.1733 19.1658 61.5007 19.1658H64.7712C66.0986 19.1658 67.1701 20.2411 67.1701 21.5732V60.0925C67.1701 61.4246 66.0986 62.5 64.7712 62.5Z" fill="#FF9853"/>
<path d="M32.4254 42.6304C31.7936 42.6304 31.1859 42.3816 30.7301 41.9242C30.1943 41.3866 29.9385 40.6162 30.0584 39.8618L31.6817 29.1567C31.7617 28.6511 31.9935 28.1777 32.3534 27.8165L58.8616 1.20613C59.7972 0.267226 61.3165 0.267226 62.2521 1.20613L71.2961 10.2822C72.2317 11.2211 72.2317 12.7459 71.2961 13.6848L44.7799 40.2952C44.42 40.6563 43.9482 40.897 43.4445 40.9693L32.7772 42.5983C32.6573 42.6144 32.5373 42.6224 32.4174 42.6224L32.4254 42.6304ZM36.2956 30.6573L35.2801 37.3501L41.9491 36.3309L66.2103 11.9835L60.5569 6.30994L36.2956 30.6573Z" fill="#FF9853"/>
</g>
<defs>
<clipPath id="clip0_256_15">
<rect width="72" height="62" fill="white" transform="translate(0 0.5)"/>
</clipPath>
</defs>
</svg>
