<svg width="110" height="105" viewBox="0 0 110 105" fill="none" xmlns="http://www.w3.org/2000/svg">
<g clip-path="url(#clip0_608_6855)">
<path d="M75.876 90H10.0713C8.3777 90 7 88.7637 7 87.2263V31.6658C7 30.1363 8.3777 28.8921 10.0713 28.8921H75.876C77.5696 28.8921 78.9473 30.1363 78.9473 31.6658V87.2263C78.9473 88.7558 77.5696 90 75.876 90ZM13.1426 84.4526H72.8047V34.4394H13.1426V84.4526Z" fill="#FF9853"/>
<path d="M75.876 89.9999C75.367 89.9999 74.8581 89.889 74.4018 89.6592C73.4189 89.1758 72.8047 88.2406 72.8047 87.2263V31.6657C72.8047 30.7227 73.34 29.843 74.2175 29.3279L98.2701 15.4358C99.2179 14.889 100.42 14.8494 101.403 15.3407C102.386 15.8241 103 16.7592 103 17.7736V73.3342C103 74.2772 102.465 75.1648 101.578 75.672L77.5257 89.5641C77.0255 89.8573 76.4464 89.9999 75.876 89.9999ZM78.9473 33.1873V82.1624L96.8573 71.8205V22.8375L78.9473 33.1794V33.1873Z" fill="#FF9853"/>
<path d="M75.7527 34.4395H10.0708C8.7019 34.4395 7.49971 33.6232 7.12238 32.4424C6.73627 31.2616 7.27156 29.9857 8.4211 29.328L32.5966 15.4359C33.088 15.1506 33.6584 15 34.2463 15H99.9282C101.288 15 102.499 15.8163 102.877 16.997C103.263 18.1778 102.727 19.4537 101.578 20.1115L77.4112 34.0036C76.9198 34.2889 76.3494 34.4395 75.7615 34.4395H75.7527ZM20.6185 28.8921H74.8577L89.3805 20.5473H35.1414L20.6273 28.8921H20.6185Z" fill="#FF9853"/>
<path d="M49.2704 89.6037H35.2478C33.7911 89.6037 32.6152 88.5418 32.6152 87.2263V31.6658C32.6152 30.3502 33.7911 29.2883 35.2478 29.2883H49.2704C50.7271 29.2883 51.903 30.3502 51.903 31.6658V87.2263C51.903 88.5418 50.7271 89.6037 49.2704 89.6037ZM37.8715 84.8489H46.6291V34.0432H37.8715V84.8489Z" fill="#FF9853"/>
<path d="M50.3057 34.0432H35.2476C34.0892 34.0432 33.0713 33.3617 32.7291 32.3632C32.3869 31.3646 32.8081 30.2869 33.7646 29.7004L56.3956 15.8083C56.8344 15.5389 57.3521 15.3962 57.8786 15.3962H73.5072C74.6655 15.3962 75.6922 16.0857 76.0256 17.0842C76.3591 18.0907 75.9291 19.1684 74.9638 19.7549L51.7711 33.647C51.3412 33.9085 50.8322 34.0432 50.3145 34.0432H50.3057ZM43.7945 29.2884H49.5072L64.7583 20.1511H58.6772L43.7945 29.2884Z" fill="#FF9853"/>
</g>
<defs>
<clipPath id="clip0_608_6855">
<rect width="96" height="75" fill="white" transform="translate(7 15)"/>
</clipPath>
</defs>
</svg>
