<svg width="111" height="105" viewBox="0 0 111 105" fill="none" xmlns="http://www.w3.org/2000/svg">
<g clip-path="url(#clip0_608_6856)">
<path d="M30.9032 49.0389C23.3168 49.0389 17.1504 42.794 17.1504 35.121C17.1504 27.448 23.3168 21.2112 30.9032 21.2112C38.4896 21.2112 44.6641 27.4561 44.6641 35.121C44.6641 42.7859 38.4896 49.0389 30.9032 49.0389ZM30.9032 26.859C26.3961 26.859 22.7345 30.5705 22.7345 35.121C22.7345 39.6716 26.404 43.3911 30.9032 43.3911C35.4024 43.3911 39.08 39.6796 39.08 35.121C39.08 30.5624 35.4104 26.859 30.9032 26.859Z" fill="#FF9853"/>
<path d="M37.5161 76.8101H3.12604C1.58642 76.8101 0.333984 75.5434 0.333984 73.9862C0.333984 60.6654 12.9062 51.3625 30.903 51.3625C39.4068 51.3625 47.9744 54.0251 53.8217 58.495C55.0502 59.4309 55.2975 61.2059 54.3722 62.4485C53.4388 63.691 51.6918 63.9411 50.4633 63.0052C45.5493 59.2534 38.2341 57.0104 30.9109 57.0104C17.3974 57.0104 7.89646 62.5856 6.19729 71.1623H37.5241C39.0637 71.1623 40.3162 72.429 40.3162 73.9862C40.3162 75.5434 39.0637 76.8101 37.5241 76.8101H37.5161Z" fill="#FF9853"/>
<path d="M30.9034 57.0024C29.3638 57.0024 28.1113 55.7357 28.1113 54.1785V46.8928C28.1113 45.3356 29.3638 44.0688 30.9034 44.0688C32.443 44.0688 33.6954 45.3356 33.6954 46.8928V54.1785C33.6954 55.7357 32.443 57.0024 30.9034 57.0024Z" fill="#FF9853"/>
<path d="M72.4733 51.3303C63.3871 51.3303 55.9922 43.851 55.9922 34.6611C55.9922 25.4713 63.3871 18 72.4733 18C81.5594 18 88.9544 25.4794 88.9544 34.6692C88.9544 43.859 81.5594 51.3384 72.4733 51.3384V51.3303ZM72.4733 23.6478C66.4664 23.6478 61.5763 28.5937 61.5763 34.6692C61.5763 40.7447 66.4664 45.6906 72.4733 45.6906C78.4802 45.6906 83.3703 40.7447 83.3703 34.6692C83.3703 28.5937 78.4802 23.6478 72.4733 23.6478Z" fill="#FF9853"/>
<path d="M107.142 86.0001H37.8038C36.2642 86.0001 35.0117 84.7334 35.0117 83.1762C35.0117 66.9588 50.4159 55.6309 72.4731 55.6309C94.5303 55.6309 109.934 66.9588 109.934 83.1762C109.934 84.7334 108.682 86.0001 107.142 86.0001ZM40.8112 80.3523H104.135C102.364 68.992 89.8396 61.2787 72.4731 61.2787C55.1065 61.2787 42.5822 68.984 40.8112 80.3523Z" fill="#FF9853"/>
<path d="M72.4717 59.9472C70.9321 59.9472 69.6797 58.6805 69.6797 57.1233V49.176C69.6797 47.6188 70.9321 46.3521 72.4717 46.3521C74.0114 46.3521 75.2638 47.6188 75.2638 49.176V57.1233C75.2638 58.6805 74.0114 59.9472 72.4717 59.9472Z" fill="#FF9853"/>
</g>
<defs>
<clipPath id="clip0_608_6856">
<rect width="109.6" height="68" fill="white" transform="translate(0.333984 18)"/>
</clipPath>
</defs>
</svg>
