<svg width="64" height="63" viewBox="0 0 64 63" fill="none" xmlns="http://www.w3.org/2000/svg">
<g clip-path="url(#clip0_256_8)">
<path d="M54.4587 62.5H3.38499C2.70446 62.5 2.05796 62.2244 1.57308 61.7422C1.08821 61.26 0.833008 60.5969 0.833008 59.9081L1.02866 10.1531C1.04567 4.83139 5.34151 0.5 10.5986 0.5H61.2895C62.6591 0.5 63.782 1.59361 63.8415 2.98C63.8926 4.36639 62.8633 5.54611 61.4937 5.65806H61.4852C61.4171 5.65806 61.3491 5.66667 61.281 5.66667C59.6307 5.66667 58.4909 5.98528 57.8869 6.6225C57.2404 7.29417 56.9597 8.57722 57.0192 10.5492V59.9167C57.0192 61.3461 55.8793 62.5 54.4672 62.5H54.4587ZM5.94548 57.3333H51.9067V10.6353C51.8642 9.2575 51.9152 7.42333 52.5788 5.66667H10.5986C8.1487 5.66667 6.14114 7.69028 6.13263 10.1703L5.95399 57.3333H5.94548Z" fill="#FF9853"/>
<path d="M41.6646 21.1667H16.1448C14.7327 21.1667 13.5928 20.0128 13.5928 18.5833C13.5928 17.1539 14.7327 16 16.1448 16H41.6646C43.0767 16 44.2166 17.1539 44.2166 18.5833C44.2166 20.0128 43.0767 21.1667 41.6646 21.1667Z" fill="#FF9853"/>
<path d="M41.6646 34.0834H16.1448C14.7327 34.0834 13.5928 32.9295 13.5928 31.5001C13.5928 30.0706 14.7327 28.9167 16.1448 28.9167H41.6646C43.0767 28.9167 44.2166 30.0706 44.2166 31.5001C44.2166 32.9295 43.0767 34.0834 41.6646 34.0834Z" fill="#FF9853"/>
<path d="M41.6646 46.9999H16.1448C14.7327 46.9999 13.5928 45.846 13.5928 44.4166C13.5928 42.9871 14.7327 41.8333 16.1448 41.8333H41.6646C43.0767 41.8333 44.2166 42.9871 44.2166 44.4166C44.2166 45.846 43.0767 46.9999 41.6646 46.9999Z" fill="#FF9853"/>
</g>
<defs>
<clipPath id="clip0_256_8">
<rect width="63" height="62" fill="white" transform="translate(0.833008 0.5)"/>
</clipPath>
</defs>
</svg>
