<svg width="111" height="105" viewBox="0 0 111 105" fill="none" xmlns="http://www.w3.org/2000/svg">
<g clip-path="url(#clip0_261_657)">
<path d="M87.8087 105C87.3306 105 86.8525 104.89 86.4111 104.65L55.6721 88.4632L24.9332 104.65C23.9217 105.184 22.6896 105.101 21.7701 104.42C20.8414 103.748 20.3817 102.607 20.5748 101.475L26.4596 67.2147L1.57785 42.9755C0.759497 42.1748 0.465257 40.9785 0.814668 39.8926C1.16408 38.8067 2.11117 38.0061 3.24215 37.8405L37.6131 32.8528L52.9688 1.67485C53.4745 0.644172 54.5228 0 55.663 0C56.8031 0 57.8514 0.653374 58.3571 1.67485L73.7128 32.8528L108.084 37.8405C109.215 38.0061 110.162 38.7975 110.511 39.8926C110.861 40.9785 110.566 42.1748 109.748 42.9755L84.8663 67.2239L90.7511 101.485C90.9442 102.617 90.4845 103.758 89.5558 104.429C89.0317 104.807 88.4156 105 87.7904 105H87.8087ZM55.6721 82.0583C56.1503 82.0583 56.6376 82.1687 57.0698 82.408L83.8089 96.4969L78.6873 66.6902C78.5218 65.7147 78.8436 64.7209 79.5516 64.0215L101.197 42.9202L71.2853 38.5859C70.3106 38.4479 69.4555 37.8313 69.0233 36.9387L55.663 9.80982L42.3026 36.9387C41.8704 37.8313 41.0153 38.4479 40.0406 38.5859L10.1384 42.9202L31.7835 64.0215C32.4915 64.7117 32.8133 65.7055 32.6478 66.6902L27.5262 96.4969L54.2653 82.408C54.7067 82.1779 55.1848 82.0583 55.663 82.0583H55.6721Z" fill="#FF9853"/>
<path d="M75.2941 87.2025C74.8528 87.2025 74.4114 87.1013 74.0068 86.8805L55.6628 77.2179L37.3187 86.8805C36.39 87.3682 35.259 87.2854 34.4131 86.6688C33.5671 86.0522 33.135 85.0032 33.3189 83.9633L36.8314 63.5246L21.9814 49.0492C21.2274 48.313 20.9608 47.2179 21.2826 46.2148C21.6044 45.2117 22.4687 44.4848 23.5078 44.3375L44.0219 41.3651L53.1893 22.7578C53.649 21.8099 54.6145 21.2209 55.6628 21.2209C56.711 21.2209 57.6765 21.8191 58.1362 22.7578L67.3037 41.3651L87.8177 44.3375C88.8568 44.4848 89.7211 45.2117 90.0429 46.2148C90.3648 47.2179 90.0981 48.313 89.3441 49.0492L74.4942 63.5246L78.0067 83.9633C78.1814 85.0032 77.7584 86.043 76.9124 86.6688C76.4343 87.0185 75.8642 87.1933 75.2941 87.1933V87.2025ZM29.8431 49.0124L41.7231 60.589C42.376 61.224 42.6702 62.1351 42.5139 63.0369L39.7002 79.3897L54.3755 71.6596C55.1754 71.2363 56.1409 71.2363 56.9409 71.6596L71.6161 79.3897L68.8024 63.0369C68.6461 62.1443 68.9496 61.224 69.6024 60.589L81.4824 49.0124L65.0693 46.6289C64.1682 46.5001 63.3958 45.9295 62.9912 45.1197L55.6628 30.2394L48.3343 45.1197C47.9297 45.9387 47.1574 46.5001 46.2563 46.6289L29.8431 49.0124Z" fill="#FF9853"/>
</g>
<defs>
<clipPath id="clip0_261_657">
<rect width="110" height="105" fill="white" transform="translate(0.667969)"/>
</clipPath>
</defs>
</svg>
