<svg width="158" height="117" viewBox="0 0 158 117" fill="none" xmlns="http://www.w3.org/2000/svg">
<g clip-path="url(#clip0_259_179)">
<path d="M105.228 20.5311C105.228 20.5311 104.987 20.7641 104.564 21.1731C104.36 21.3745 104.114 21.6176 103.83 21.8984C103.55 22.1864 103.227 22.5058 102.886 22.8649C102.715 23.044 102.536 23.2312 102.351 23.4235C102.169 23.6188 101.98 23.8213 101.787 24.0298C101.592 24.2374 101.395 24.4541 101.196 24.6759C100.997 24.8987 100.789 25.1235 100.585 25.3575C100.38 25.5915 100.173 25.8296 99.9627 26.0707C99.7518 26.3118 99.546 26.5621 99.334 26.8103C99.2281 26.9355 99.1221 27.0606 99.0161 27.1868C98.9122 27.3139 98.8073 27.4421 98.7023 27.5703C98.4935 27.8277 98.2836 28.0851 98.0737 28.3435C97.6631 28.8664 97.2453 29.3863 96.853 29.9113C96.6564 30.1738 96.4546 30.4301 96.2662 30.6906C96.0766 30.95 95.8892 31.2074 95.7047 31.4597C95.5183 31.711 95.342 31.9633 95.1698 32.2105C94.9966 32.4578 94.8275 32.6989 94.6624 32.9339C94.3415 33.411 94.0378 33.8617 93.7576 34.2779C93.4856 34.7001 93.237 35.0877 93.0159 35.4305C92.7917 35.7724 92.6134 36.0806 92.4575 36.3299C92.1508 36.8315 91.9756 37.1173 91.9756 37.1173C91.9756 37.1173 92.108 36.8091 92.3404 36.2699C92.4585 36.0013 92.593 35.6696 92.7662 35.2983C92.9374 34.9249 93.13 34.5047 93.3399 34.0459C93.56 33.5911 93.7984 33.0977 94.0501 32.5768C94.1815 32.3184 94.316 32.0529 94.4535 31.7812C94.5911 31.5096 94.7307 31.2308 94.8815 30.9531C95.0302 30.6733 95.181 30.3894 95.3339 30.1015C95.4867 29.8126 95.6507 29.5267 95.8117 29.2347C96.1306 28.6497 96.475 28.0678 96.8143 27.4798C96.9885 27.1888 97.1638 26.8988 97.337 26.6089C97.4246 26.4644 97.5112 26.32 97.5989 26.1755C97.6885 26.0331 97.7772 25.8906 97.8658 25.7492C98.0441 25.4664 98.2173 25.1835 98.3956 24.9089C98.5739 24.6342 98.7502 24.3625 98.9244 24.095C99.0977 23.8274 99.2749 23.569 99.4461 23.3136C99.6163 23.0582 99.7844 22.809 99.9525 22.5699C100.12 22.3298 100.282 22.0958 100.44 21.8689C100.6 21.6451 100.755 21.4284 100.904 21.2199C101.201 20.8027 101.484 20.4283 101.729 20.0916C101.983 19.7569 102.205 19.4649 102.388 19.2248C102.748 18.7609 102.954 18.4953 102.954 18.4953C103.473 17.8279 104.436 17.7058 105.104 18.2237C105.772 18.7415 105.895 19.7029 105.376 20.3703C105.332 20.4263 105.28 20.4843 105.23 20.5321L105.228 20.5311Z" fill="#FF9853"/>
<path d="M90.5615 44.0377C90.5615 44.0377 90.4311 44.3154 90.2018 44.8028C90.0836 45.049 89.9563 45.3338 89.8065 45.6655C89.6547 45.9941 89.4906 46.3736 89.3113 46.7897C89.1279 47.2038 88.9486 47.6585 88.7489 48.1387C88.6511 48.3788 88.5563 48.6281 88.4565 48.8824C88.3566 49.1358 88.2547 49.3962 88.1589 49.6628C88.0611 49.9293 87.9613 50.1999 87.8594 50.4736C87.7626 50.7493 87.6658 51.0291 87.567 51.3099C87.4661 51.5907 87.3764 51.8776 87.2806 52.1645C87.1859 52.4514 87.0901 52.7393 87.0025 53.0303C86.9138 53.3212 86.8242 53.6112 86.7355 53.9001C86.652 54.1911 86.5695 54.481 86.4869 54.769C86.4013 55.0569 86.329 55.3448 86.2526 55.6286C86.1792 55.9125 86.0987 56.1933 86.0335 56.471C85.898 57.0265 85.7645 57.5637 85.6545 58.0765C85.5985 58.3328 85.5394 58.5821 85.4904 58.8242C85.4415 59.0664 85.3947 59.3014 85.3498 59.5262C85.2551 59.9759 85.1858 60.391 85.1196 60.7582C85.087 60.9424 85.0564 61.1143 85.0279 61.2741C85.0024 61.4338 84.98 61.5803 84.9586 61.7136C84.875 62.2446 84.8271 62.5478 84.8271 62.5478C84.8271 62.5478 84.8271 62.2406 84.8271 61.7024C84.8271 61.5681 84.8271 61.4185 84.8271 61.2568C84.8302 61.095 84.8343 60.919 84.8384 60.7318C84.8475 60.3564 84.8516 59.9321 84.875 59.4713C84.8852 59.2403 84.8954 58.9992 84.9056 58.75C84.9168 58.5007 84.9362 58.2433 84.9525 57.9788C84.982 57.4477 85.0309 56.8902 85.0798 56.3113C85.1012 56.0214 85.1379 55.7294 85.1664 55.4313C85.198 55.1342 85.2266 54.832 85.2663 54.5299C85.304 54.2267 85.3417 53.9215 85.3804 53.6142C85.4242 53.308 85.468 53.0008 85.5118 52.6925C85.5536 52.3842 85.6056 52.078 85.6555 51.7718C85.7065 51.4666 85.7523 51.1603 85.8094 50.8592C85.8644 50.557 85.9194 50.2579 85.9734 49.9619C86.0325 49.6668 86.0906 49.3759 86.1487 49.089C86.2047 48.8021 86.2658 48.5203 86.328 48.2456C86.3891 47.9709 86.4462 47.7002 86.5073 47.4388C86.6337 46.9169 86.7457 46.4204 86.867 45.9666C86.9831 45.5119 87.0911 45.0948 87.1971 44.7224C87.3 44.3511 87.3897 44.0224 87.4661 43.7691C87.6169 43.2533 87.7035 42.9583 87.7035 42.9583C87.9409 42.1464 88.7917 41.6804 89.6047 41.9175C90.4178 42.1545 90.8845 43.004 90.6471 43.8159C90.6257 43.8902 90.5941 43.9695 90.5625 44.0387L90.5615 44.0377Z" fill="#FF9853"/>
<path d="M114.861 28.6469C114.861 28.6469 114.581 28.8768 114.091 29.2807C113.842 29.4831 113.557 29.7253 113.225 30.004C112.893 30.2808 112.52 30.6022 112.113 30.9543C111.704 31.3032 111.273 31.6939 110.811 32.1019C110.583 32.3094 110.348 32.522 110.109 32.7398C109.87 32.9575 109.625 33.1803 109.381 33.4122C109.135 33.6422 108.885 33.8772 108.633 34.1142C108.383 34.3543 108.13 34.5985 107.876 34.8437C107.619 35.0879 107.368 35.3412 107.113 35.5925C106.86 35.8448 106.602 36.0971 106.352 36.3555C106.101 36.6129 105.849 36.8703 105.597 37.1257C105.35 37.3851 105.104 37.6445 104.86 37.9009C104.613 38.1563 104.377 38.4167 104.14 38.6721C103.906 38.9284 103.669 39.1777 103.444 39.431C102.993 39.9346 102.555 40.4209 102.15 40.892C101.948 41.127 101.75 41.3559 101.558 41.5767C101.37 41.8005 101.189 42.0162 101.014 42.2237C100.663 42.6368 100.352 43.0254 100.073 43.3672C99.9333 43.5382 99.8039 43.6989 99.6827 43.8474C99.5645 43.997 99.4565 44.1354 99.3576 44.2595C98.9654 44.758 98.7412 45.0429 98.7412 45.0429C98.7412 45.0429 98.9256 44.7305 99.2496 44.1852C99.3301 44.0489 99.4198 43.8973 99.5176 43.7325C99.6175 43.5697 99.7265 43.3927 99.8416 43.2045C100.074 42.828 100.333 42.4007 100.628 41.9429C100.775 41.713 100.928 41.4739 101.086 41.2257C101.247 40.9795 101.414 40.7261 101.585 40.4647C101.926 39.9397 102.299 39.3974 102.684 38.8328C102.875 38.549 103.08 38.2692 103.28 37.9802C103.483 37.6933 103.687 37.4003 103.9 37.1114C104.111 36.8204 104.324 36.5285 104.538 36.2344C104.756 35.9435 104.975 35.6515 105.194 35.3595C105.411 35.0655 105.636 34.7786 105.858 34.4896C106.081 34.2017 106.3 33.9128 106.527 33.632C106.751 33.3502 106.973 33.0704 107.193 32.7947C107.416 32.521 107.637 32.2514 107.854 31.9859C108.07 31.7193 108.287 31.4609 108.501 31.2086C108.714 30.9563 108.923 30.7091 109.127 30.468C109.539 29.9928 109.926 29.5371 110.293 29.1281C110.658 28.716 110.993 28.3386 111.3 28.0069C111.604 27.6742 111.87 27.3812 112.085 27.1523C112.518 26.6884 112.765 26.4239 112.765 26.4239C113.342 25.8063 114.311 25.7718 114.93 26.3476C115.549 26.9234 115.584 27.8909 115.007 28.5095C114.962 28.5573 114.909 28.6072 114.86 28.6479L114.861 28.6469Z" fill="#FF9853"/>
<path d="M146.253 30.6244C146.253 30.6244 146.212 30.6316 146.134 30.6438C146.057 30.657 145.943 30.6773 145.794 30.7038C145.487 30.7618 145.034 30.8472 144.454 30.9744C143.875 31.0995 143.17 31.2593 142.364 31.4627C141.557 31.6622 140.649 31.9063 139.661 32.1871C138.674 32.4689 137.609 32.7955 136.489 33.1597C135.369 33.529 134.192 33.9319 132.986 34.3836C132.684 34.4966 132.379 34.6105 132.073 34.7244C131.768 34.8435 131.461 34.9635 131.153 35.0846C130.998 35.1446 130.843 35.2057 130.688 35.2667C130.534 35.3298 130.379 35.3939 130.223 35.457C129.913 35.5841 129.601 35.7123 129.288 35.8415C128.664 36.105 128.038 36.3756 127.409 36.6514C127.096 36.7928 126.784 36.9352 126.471 37.0766C126.157 37.218 125.843 37.3605 125.533 37.511C124.912 37.8091 124.286 38.0981 123.675 38.4114C123.368 38.565 123.062 38.7187 122.756 38.8713C122.45 39.0249 122.152 39.1877 121.85 39.3443C121.55 39.5031 121.25 39.6607 120.952 39.8174C120.658 39.9802 120.365 40.142 120.073 40.3027C119.782 40.4645 119.492 40.6242 119.205 40.7839C118.921 40.9498 118.639 41.1136 118.359 41.2763C118.079 41.4391 117.802 41.6019 117.528 41.7616C117.254 41.9244 116.988 42.0923 116.722 42.254C116.191 42.5816 115.667 42.895 115.172 43.2236C114.675 43.5492 114.185 43.8564 113.721 44.1698C113.259 44.4851 112.813 44.7903 112.385 45.0834C112.169 45.2278 111.964 45.3784 111.762 45.5239C111.56 45.6694 111.364 45.8118 111.171 45.9502C110.789 46.2289 110.418 46.4853 110.086 46.7447C109.75 47.0011 109.436 47.2402 109.145 47.462C108.854 47.6838 108.584 47.8852 108.351 48.0785C107.405 48.8405 106.865 49.277 106.865 49.277C106.865 49.277 107.375 48.8049 108.266 47.9788C108.486 47.7692 108.741 47.5495 109.017 47.3073C109.293 47.0652 109.591 46.8037 109.91 46.525C110.225 46.2411 110.577 45.9603 110.942 45.6541C111.124 45.5025 111.313 45.3458 111.504 45.1861C111.697 45.0264 111.891 44.8616 112.098 44.7018C112.508 44.3783 112.936 44.0416 113.377 43.6926C113.82 43.3457 114.291 43.0028 114.769 42.6406C115.245 42.2754 115.75 41.9244 116.261 41.5582C116.518 41.376 116.775 41.1888 117.04 41.0057C117.306 40.8246 117.574 40.6425 117.845 40.4594C118.116 40.2752 118.389 40.0901 118.664 39.9039C118.943 39.7228 119.224 39.5407 119.507 39.3576C119.79 39.1744 120.075 38.9903 120.362 38.8062C120.652 38.6271 120.943 38.447 121.236 38.2659C121.529 38.0869 121.821 37.9007 122.119 37.7247C122.418 37.5487 122.717 37.3717 123.017 37.1946C123.614 36.8355 124.227 36.4987 124.837 36.1528C125.14 35.9789 125.448 35.812 125.757 35.6472C126.064 35.4814 126.372 35.3155 126.68 35.1497C127.297 34.8262 127.916 34.5077 128.531 34.1954C128.841 34.0428 129.148 33.8902 129.455 33.7396C129.609 33.6643 129.762 33.5891 129.915 33.5138C130.069 33.4415 130.222 33.3683 130.375 33.2961C130.681 33.1516 130.986 33.0081 131.287 32.8647C131.592 32.7263 131.893 32.589 132.193 32.4527C133.391 31.9073 134.565 31.4139 135.684 30.9571C136.804 30.5054 137.873 30.0964 138.867 29.7363C139.861 29.3781 140.779 29.0617 141.599 28.7982C142.419 28.5317 143.14 28.314 143.738 28.141C144.335 27.967 144.813 27.8419 145.141 27.7565C145.31 27.7147 145.44 27.6822 145.527 27.6608C145.614 27.6405 145.659 27.6293 145.659 27.6293C146.48 27.4339 147.305 27.9406 147.501 28.7606C147.696 29.5806 147.189 30.4047 146.368 30.6C146.335 30.6082 146.302 30.6143 146.269 30.6204L146.254 30.6224L146.253 30.6244Z" fill="#FF9853"/>
<path d="M103.977 54.1402C103.977 54.1402 103.66 54.4383 103.103 54.9581C102.818 55.2196 102.504 55.5319 102.132 55.8921C101.948 56.0742 101.748 56.2604 101.544 56.47C101.339 56.6785 101.123 56.8983 100.899 57.1262C100.787 57.2411 100.672 57.3571 100.555 57.4772C100.441 57.5982 100.324 57.7224 100.205 57.8485C99.968 58.1008 99.7225 58.3613 99.4708 58.6298C99.2243 58.9035 98.9706 59.1843 98.7118 59.4712C98.5824 59.6157 98.4509 59.7612 98.3195 59.9077C98.1911 60.0572 98.0607 60.2088 97.9303 60.3614C97.6694 60.6677 97.3984 60.9749 97.1335 61.2944C96.8706 61.6148 96.6047 61.9394 96.3367 62.267C96.2012 62.4297 96.0698 62.5966 95.9393 62.7655C95.8079 62.9333 95.6765 63.1022 95.544 63.2711C95.4115 63.44 95.2801 63.6099 95.1477 63.7788L94.7615 64.2956C94.5058 64.6425 94.2439 64.9854 93.9933 65.3343C93.7457 65.6853 93.4981 66.0343 93.2525 66.3812C93.1914 66.4677 93.1302 66.5542 93.0691 66.6407C93.01 66.7281 92.9509 66.8156 92.8928 66.9031C92.7757 67.0781 92.6585 67.2521 92.5423 67.4251C92.3111 67.772 92.0767 68.1108 91.8627 68.4557C91.6447 68.7975 91.4307 69.1342 91.2219 69.4639C91.013 69.7935 90.8214 70.1241 90.6278 70.4426C90.4383 70.7631 90.2437 71.0693 90.0736 71.3755C89.9004 71.6807 89.7333 71.9748 89.5723 72.2576C89.2442 72.8202 88.9732 73.3513 88.7205 73.8172C88.5962 74.0512 88.477 74.2689 88.372 74.4724C88.2691 74.6769 88.1743 74.8651 88.0888 75.035C87.7464 75.7156 87.5508 76.1043 87.5508 76.1043C87.5508 76.1043 87.7026 75.6963 87.9685 74.9821C88.0348 74.803 88.1091 74.6057 88.1886 74.39C88.2711 74.1753 88.3659 73.9464 88.4637 73.6992C88.6644 73.2078 88.8774 72.6452 89.1433 72.048C89.2727 71.7469 89.4082 71.4335 89.5478 71.109C89.6854 70.7834 89.8453 70.4548 90.0002 70.113C90.1591 69.7731 90.315 69.4191 90.4893 69.064C90.6635 68.709 90.8418 68.3468 91.0222 67.9785C91.1994 67.6072 91.3971 67.2399 91.5927 66.8645C91.6905 66.6773 91.7894 66.488 91.8882 66.2988C91.9381 66.2042 91.987 66.1086 92.037 66.014C92.0889 65.9204 92.1409 65.8257 92.1939 65.7311C92.4038 65.3527 92.6147 64.9722 92.8266 64.5886C93.0416 64.2071 93.2678 63.8307 93.4889 63.4502L93.8241 62.8815C93.9393 62.6943 94.0554 62.5081 94.1705 62.3209C94.2857 62.1347 94.4008 61.9485 94.5159 61.7623C94.6301 61.5762 94.7452 61.391 94.8644 61.2109C95.1008 60.8477 95.3362 60.4866 95.5674 60.1295C95.8018 59.7744 96.0433 59.4305 96.2756 59.0877C96.3927 58.9167 96.5089 58.7479 96.623 58.58C96.7412 58.4152 96.8594 58.2514 96.9756 58.0896C97.2089 57.7661 97.4371 57.4497 97.6592 57.1414C97.8875 56.8383 98.1096 56.5422 98.3246 56.2563C98.4326 56.1139 98.5385 55.9735 98.6425 55.8351C98.7495 55.6998 98.8544 55.5665 98.9563 55.4363C99.1621 55.1748 99.3587 54.9256 99.5462 54.6875C99.7327 54.4495 99.9222 54.2277 100.093 54.0161C100.44 53.5969 100.743 53.2225 100.991 52.9397C101.487 52.3608 101.77 52.0312 101.77 52.0312C102.321 51.3902 103.287 51.3149 103.928 51.8633C104.57 52.4117 104.646 53.3771 104.096 54.0181C104.059 54.0608 104.019 54.1015 103.979 54.1392L103.977 54.1402Z" fill="#FF9853"/>
<path d="M92.6062 24.1824C92.6062 24.1824 92.3759 24.5425 91.9734 25.1733C91.7666 25.4918 91.5425 25.8651 91.2765 26.2985C91.1451 26.5163 91.0004 26.7421 90.8567 26.9914C90.712 27.2396 90.5592 27.5001 90.4013 27.7727C90.3218 27.909 90.2403 28.0484 90.1578 28.1898C90.0783 28.3333 89.9968 28.4788 89.9143 28.6283C89.7492 28.9254 89.578 29.2337 89.4028 29.5501C89.2336 29.8695 89.0604 30.1981 88.8821 30.5339C88.7935 30.7017 88.7038 30.8727 88.6131 31.0436C88.5265 31.2175 88.4389 31.3925 88.3503 31.5685C88.175 31.9226 87.9906 32.2807 87.8153 32.648C87.6421 33.0163 87.4659 33.3886 87.2886 33.765C87.1092 34.1405 86.9472 34.526 86.774 34.9106C86.6884 35.1029 86.6028 35.2962 86.5173 35.4895L86.2727 36.0745C86.1117 36.4652 85.9446 36.8548 85.7898 37.2465C85.6369 37.6402 85.4851 38.0319 85.3343 38.4206C85.2966 38.5182 85.2589 38.6149 85.2212 38.7115C85.1866 38.8092 85.1509 38.9069 85.1163 39.0035C85.046 39.1978 84.9767 39.3921 84.9074 39.5844C84.7699 39.97 84.6282 40.3495 84.507 40.728C84.3817 41.1064 84.2584 41.4778 84.1381 41.841C84.0179 42.2052 83.915 42.5664 83.807 42.9153C83.7031 43.2653 83.592 43.6041 83.5034 43.9368C83.4117 44.2684 83.323 44.5889 83.2385 44.8972C83.0612 45.5117 82.9318 46.0834 82.8044 46.587C82.7423 46.8393 82.6821 47.0754 82.6312 47.2951C82.5833 47.5149 82.5385 47.7163 82.4987 47.8994C82.3388 48.6299 82.2471 49.047 82.2471 49.047C82.2471 49.047 82.2919 48.6218 82.3693 47.8781C82.3887 47.6919 82.4101 47.4854 82.4345 47.2615C82.461 47.0377 82.4947 46.7956 82.5283 46.5372C82.5996 46.0203 82.6648 45.4333 82.7728 44.7995C82.8227 44.4821 82.8757 44.1504 82.9297 43.8075C82.9817 43.4637 83.0551 43.1127 83.1193 42.7495C83.1885 42.3873 83.2507 42.0119 83.3302 41.6324C83.4106 41.2529 83.4922 40.8643 83.5757 40.4706C83.6552 40.0748 83.755 39.677 83.8498 39.2721C83.8977 39.0696 83.9466 38.8662 83.9945 38.6617C84.0189 38.5589 84.0434 38.4572 84.0678 38.3544C84.0943 38.2527 84.1218 38.1499 84.1483 38.0472C84.2563 37.6362 84.3664 37.2231 84.4754 36.807C84.5875 36.3919 84.7128 35.9789 84.832 35.5638L85.0134 34.9411C85.0786 34.7356 85.1428 34.5301 85.208 34.3246C85.3404 33.9146 85.4617 33.5026 85.6003 33.1007C85.7378 32.6978 85.8743 32.297 86.0088 31.9022C86.1454 31.5075 86.2931 31.1219 86.4307 30.7394C86.501 30.5481 86.5702 30.3589 86.6385 30.1717C86.7109 29.9855 86.7832 29.8014 86.8545 29.6192C86.9982 29.255 87.1378 28.8979 87.2743 28.551C87.418 28.2071 87.5576 27.8714 87.6931 27.5479C87.7603 27.3861 87.8276 27.2264 87.8928 27.0697C87.961 26.9151 88.0283 26.7625 88.0945 26.6139C88.2259 26.3158 88.3533 26.0299 88.4735 25.7583C88.5917 25.4857 88.7181 25.2293 88.8302 24.9871C89.0574 24.5039 89.254 24.0735 89.4201 23.7449C89.7492 23.0735 89.9377 22.6899 89.9377 22.6899C90.3096 21.932 91.2266 21.6186 91.9857 21.99C92.7447 22.3613 93.0586 23.2769 92.6867 24.0349C92.6612 24.0857 92.6327 24.1366 92.6031 24.1834L92.6062 24.1824Z" fill="#FF9853"/>
<path d="M126.368 9.88839C126.368 9.88839 125.826 10.2811 124.88 10.9678C124.762 11.0533 124.637 11.1438 124.506 11.2395C124.379 11.3351 124.245 11.4348 124.107 11.5386C123.829 11.7471 123.529 11.973 123.208 12.2131C122.563 12.6882 121.85 13.2569 121.065 13.8653C120.671 14.1675 120.272 14.4971 119.855 14.8328C119.44 15.1706 119.005 15.5145 118.568 15.8797C117.698 16.6132 116.771 17.3783 115.841 18.2034C114.897 19.0132 113.956 19.8871 112.987 20.7641C112.041 21.6635 111.065 22.5659 110.129 23.508C109.175 24.4328 108.26 25.3952 107.347 26.3342C106.896 26.8094 106.459 27.2885 106.021 27.7586C105.803 27.9936 105.586 28.2276 105.37 28.4606C105.16 28.6976 104.951 28.9326 104.745 29.1666C104.331 29.6336 103.924 30.0934 103.526 30.5431C103.138 31.002 102.759 31.4506 102.389 31.8881C101.641 32.7559 100.975 33.6095 100.346 34.3868C100.189 34.5821 100.036 34.7724 99.8864 34.9595C99.7407 35.1498 99.5991 35.335 99.4605 35.5161C99.1844 35.8782 98.9216 36.2221 98.675 36.5456C98.4294 36.8702 98.1941 37.1693 97.9872 37.4542C97.7814 37.739 97.5919 38.0015 97.4207 38.2375C96.736 39.1847 96.3438 39.7259 96.3438 39.7259C96.3438 39.7259 96.6953 39.1583 97.3117 38.1643C97.4656 37.916 97.6367 37.6403 97.8222 37.3402C98.0086 37.0411 98.2226 36.7257 98.4447 36.3839C98.6678 36.0431 98.9063 35.6798 99.1569 35.2973C99.2822 35.1061 99.4116 34.9107 99.5441 34.7093C99.6806 34.5119 99.8202 34.3094 99.9629 34.1029C100.537 33.2788 101.144 32.3754 101.832 31.4516C102.171 30.9867 102.519 30.5085 102.876 30.0192C103.244 29.539 103.619 29.0476 104.001 28.5491C104.192 28.2998 104.385 28.0475 104.579 27.7942C104.779 27.5449 104.981 27.2946 105.183 27.0413C105.589 26.5377 105.996 26.0229 106.415 25.5112C107.265 24.4999 108.12 23.4622 109.016 22.4601C109.893 21.4407 110.813 20.4599 111.706 19.4812C112.622 18.5249 113.512 17.5706 114.409 16.6824C115.291 15.779 116.174 14.9356 117.006 14.1288C117.423 13.7269 117.839 13.3464 118.236 12.9731C118.635 12.6017 119.016 12.2375 119.395 11.9028C120.149 11.2273 120.83 10.5995 121.459 10.0624C121.771 9.79072 122.064 9.5374 122.334 9.30238C122.469 9.18538 122.599 9.07347 122.722 8.96563C122.845 8.86186 122.963 8.76216 123.075 8.66856C123.97 7.9157 124.482 7.48535 124.482 7.48535C125.128 6.94207 126.092 7.02448 126.637 7.6695C127.181 8.31451 127.098 9.27797 126.452 9.82124C126.425 9.84363 126.394 9.86804 126.367 9.88839H126.368Z" fill="#FF9853"/>
<path d="M135.11 24.4408C135.11 24.4408 134.881 24.5324 134.454 24.7043C134.242 24.7908 133.973 24.8956 133.671 25.0207C133.37 25.1469 133.024 25.2913 132.637 25.4541C132.25 25.6169 131.82 25.8092 131.352 26.0126C130.884 26.2161 130.385 26.4511 129.847 26.6943C129.312 26.9435 128.747 27.2142 128.149 27.5021C127.853 27.6496 127.549 27.8002 127.238 27.9558C127.082 28.0331 126.925 28.1125 126.766 28.1919C126.608 28.2743 126.449 28.3567 126.288 28.4401C125.966 28.608 125.637 28.7789 125.302 28.9539C124.97 29.1339 124.631 29.3181 124.287 29.5053C123.941 29.6894 123.595 29.8858 123.244 30.0872C122.893 30.2887 122.532 30.486 122.174 30.6987C120.734 31.538 119.243 32.4699 117.725 33.472C116.214 34.4843 114.683 35.578 113.161 36.7358C111.65 37.9068 110.147 39.1398 108.69 40.4288C108.327 40.7524 107.971 41.084 107.612 41.4106L107.075 41.903L106.551 42.4076C106.204 42.7454 105.851 43.0771 105.51 43.4179C105.171 43.7618 104.835 44.1056 104.499 44.4475C104.159 44.7852 103.839 45.1403 103.515 45.4872C103.353 45.6612 103.192 45.8352 103.031 46.0081C102.87 46.1821 102.708 46.353 102.555 46.5311C101.938 47.2402 101.313 47.9289 100.739 48.6411C100.449 48.9941 100.157 49.341 99.8752 49.691C99.599 50.0461 99.326 50.3971 99.056 50.744C98.9205 50.918 98.786 51.0909 98.6525 51.2629C98.518 51.4348 98.3947 51.6118 98.2663 51.7848C98.0126 52.1327 97.762 52.4756 97.5144 52.8144C97.2617 53.1501 97.0345 53.496 96.8032 53.8317C96.5729 54.1685 96.3457 54.5001 96.1226 54.8267C96.0085 54.9885 95.9035 55.1543 95.7996 55.3181C95.6946 55.4819 95.5917 55.6437 95.4888 55.8044C95.283 56.1259 95.0813 56.4413 94.8846 56.7506C94.7837 56.9042 94.69 57.0599 94.5993 57.2145C94.5076 57.3691 94.4169 57.5217 94.3273 57.6723C94.148 57.9745 93.9717 58.2695 93.8015 58.5564C93.7159 58.7009 93.6324 58.8423 93.5488 58.9827C93.4704 59.1251 93.3919 59.2655 93.3155 59.4049C93.1627 59.6826 93.0129 59.9523 92.8692 60.2127C92.7246 60.4742 92.585 60.7265 92.4505 60.9706C92.3201 61.2169 92.1998 61.458 92.0816 61.6869C91.8463 62.1477 91.6303 62.57 91.4357 62.9525C91.3358 63.1427 91.2502 63.3269 91.1697 63.4998C91.0882 63.6728 91.0118 63.8346 90.9415 63.9851C90.7999 64.2873 90.6786 64.5437 90.5808 64.7512C90.3852 65.1673 90.2812 65.3891 90.2812 65.3891C90.2812 65.3891 90.375 65.1622 90.5502 64.737C90.6379 64.5243 90.7459 64.2619 90.8732 63.9536C90.9364 63.7989 91.0047 63.6331 91.078 63.4561C91.1504 63.2791 91.2268 63.0909 91.3175 62.8955C91.4937 62.5038 91.6894 62.0704 91.9023 61.5973C92.0093 61.3613 92.1173 61.1141 92.2365 60.8608C92.3598 60.6095 92.4872 60.349 92.6196 60.0804C92.7521 59.8119 92.8876 59.5341 93.0282 59.2482C93.0985 59.1048 93.1698 58.9603 93.2411 58.8128C93.3176 58.6683 93.395 58.5218 93.4734 58.3733C93.6314 58.0762 93.7934 57.772 93.9584 57.4597C94.041 57.304 94.1255 57.1463 94.2101 56.9866C94.2937 56.8269 94.3803 56.6651 94.474 56.5064C94.6574 56.1859 94.8449 55.8594 95.0354 55.5257C95.1312 55.3588 95.227 55.1909 95.3248 55.021C95.4216 54.8511 95.5194 54.6792 95.6254 54.5103C95.8342 54.1705 96.0462 53.8256 96.2622 53.4757C96.4792 53.1257 96.6921 52.7655 96.9295 52.4155C97.1629 52.0615 97.3993 51.7024 97.6377 51.3392C97.7589 51.1581 97.8751 50.9729 98.0014 50.7928C98.1278 50.6128 98.2551 50.4317 98.3835 50.2496C98.6392 49.8853 98.898 49.517 99.1599 49.1447C99.4279 48.7774 99.706 48.4122 99.9821 48.0408C100.527 47.291 101.126 46.5646 101.716 45.8148C101.863 45.6266 102.019 45.4455 102.173 45.2614C102.328 45.0782 102.483 44.8941 102.637 44.7089C102.949 44.3406 103.257 43.9652 103.585 43.6051C103.909 43.2409 104.234 42.8756 104.56 42.5094C104.89 42.1462 105.231 41.7921 105.568 41.431L106.075 40.8917L106.597 40.3647C106.946 40.0148 107.292 39.6587 107.645 39.3118C109.064 37.9271 110.535 36.5954 112.019 35.3247C113.515 34.0672 115.025 32.8748 116.522 31.7628C118.025 30.6631 119.506 29.6345 120.939 28.7016C121.295 28.4666 121.655 28.2458 122.005 28.022C122.355 27.7992 122.7 27.5794 123.046 27.3739C123.39 27.1653 123.727 26.9598 124.06 26.7584C124.395 26.563 124.724 26.3708 125.046 26.1825C125.207 26.0889 125.367 25.9953 125.525 25.9038C125.684 25.8143 125.842 25.7257 125.998 25.6382C126.309 25.4633 126.614 25.2934 126.912 25.1275C127.51 24.803 128.078 24.4957 128.615 24.2129C129.155 23.9362 129.657 23.6696 130.129 23.4367C130.601 23.2037 131.03 22.986 131.426 22.7967C131.823 22.6075 132.177 22.4386 132.485 22.2921C132.789 22.1517 133.047 22.0317 133.257 21.935C133.676 21.7427 133.899 21.64 133.899 21.64C134.666 21.288 135.574 21.6227 135.927 22.3888C136.279 23.1548 135.944 24.0613 135.177 24.4133C135.155 24.4225 135.13 24.4337 135.109 24.4428L135.11 24.4408Z" fill="#FF9853"/>
<path d="M55.1337 18.4934C55.1337 18.4934 55.3396 18.7589 55.7002 19.2228C55.8826 19.4629 56.1037 19.7549 56.3585 20.0896C56.604 20.4264 56.8873 20.8008 57.1838 21.2179C57.3325 21.4254 57.4874 21.6421 57.6484 21.867C57.8053 22.0928 57.9683 22.3268 58.1354 22.568C58.3035 22.807 58.4716 23.0563 58.6418 23.3117C58.812 23.567 58.9903 23.8254 59.1635 24.093C59.3367 24.3606 59.513 24.6322 59.6923 24.9069C59.8706 25.1816 60.0438 25.4654 60.2221 25.7472C60.3107 25.8887 60.3994 26.0311 60.4891 26.1735C60.5757 26.318 60.6633 26.4614 60.7509 26.6069C60.9251 26.8969 61.0994 27.1868 61.2736 27.4778C61.6129 28.0648 61.9573 28.6478 62.2762 29.2328C62.4372 29.5248 62.6012 29.8106 62.7541 30.0996C62.9069 30.3875 63.0587 30.6713 63.2065 30.9511C63.3572 31.2299 63.4968 31.5076 63.6344 31.7793C63.7719 32.0509 63.9064 32.3164 64.0379 32.5748C64.2895 33.0957 64.528 33.5892 64.748 34.0439C64.9579 34.5028 65.1505 34.924 65.3217 35.2963C65.4949 35.6677 65.6294 35.9993 65.7476 36.2679C65.9799 36.8071 66.1123 37.1154 66.1123 37.1154C66.1123 37.1154 65.9371 36.8295 65.6304 36.3279C65.4755 36.0787 65.2962 35.7714 65.072 35.4286C64.8509 35.0857 64.6023 34.6981 64.3303 34.2759C64.0501 33.8598 63.7465 33.4091 63.4255 32.9319C63.2604 32.6969 63.0913 32.4548 62.9181 32.2086C62.7459 31.9614 62.5696 31.7091 62.3832 31.4578C62.1988 31.2055 62.0113 30.9481 61.8218 30.6886C61.6323 30.4282 61.4315 30.1718 61.2349 29.9093C60.8426 29.3844 60.4249 28.8645 60.0143 28.3416C59.8044 28.0831 59.5945 27.8257 59.3856 27.5683C59.2806 27.4402 59.1767 27.313 59.0718 27.1848C58.9658 27.0586 58.8598 26.9335 58.7539 26.8084C58.5419 26.5591 58.3351 26.3099 58.1252 26.0687C57.9143 25.8276 57.7065 25.5896 57.5027 25.3556C57.2989 25.1216 57.091 24.8967 56.8924 24.6739C56.6927 24.4511 56.497 24.2344 56.3014 24.0279C56.1078 23.8193 55.9193 23.6169 55.7369 23.4215C55.5525 23.2282 55.3732 23.0421 55.202 22.863C54.8607 22.5039 54.5377 22.1844 54.2575 21.8965C53.9742 21.6167 53.7267 21.3725 53.5239 21.1711C53.101 20.7631 52.8596 20.5291 52.8596 20.5291C52.2513 19.9421 52.235 18.9726 52.8239 18.3662C53.4118 17.7588 54.3828 17.7425 54.9901 18.3306C55.041 18.3794 55.093 18.4384 55.1358 18.4924L55.1337 18.4934Z" fill="#FF9853"/>
<path d="M70.3835 42.9572C70.3835 42.9572 70.4568 43.2187 70.5862 43.6765C70.6514 43.9013 70.7289 44.1913 70.8175 44.5209C70.9082 44.8506 71.0019 45.2199 71.1028 45.6217C71.2067 46.0226 71.3055 46.4621 71.4156 46.924C71.4696 47.1549 71.5195 47.394 71.5735 47.6371C71.6275 47.8803 71.6815 48.1285 71.7314 48.3829C71.7824 48.6362 71.8344 48.8936 71.8873 49.154C71.9362 49.4155 71.9851 49.68 72.0341 49.9466C72.085 50.2121 72.1288 50.4827 72.1747 50.7523C72.2195 51.023 72.2674 51.2926 72.3071 51.5652C72.3479 51.8369 72.3897 52.1085 72.4304 52.3781C72.4671 52.6487 72.5028 52.9183 72.5394 53.1869C72.5771 53.4535 72.6067 53.72 72.6372 53.9825C72.6668 54.245 72.7014 54.5034 72.7249 54.7588C72.7758 55.2695 72.8268 55.7619 72.8614 56.2299C72.8797 56.4639 72.8981 56.6908 72.9154 56.9115C72.9297 57.1313 72.9429 57.3439 72.9551 57.5484C72.9837 57.9564 72.9969 58.3308 73.0122 58.6624C73.0193 58.8283 73.0265 58.9829 73.0326 59.1264C73.0367 59.2698 73.0397 59.401 73.0428 59.5201C73.055 59.9952 73.0621 60.2668 73.0621 60.2668C73.0621 60.2668 73.0081 60.0013 72.9123 59.5353C72.8889 59.4194 72.8624 59.2901 72.8339 59.1508C72.8023 59.0114 72.7687 58.8598 72.733 58.6991C72.6607 58.3765 72.5822 58.0133 72.4834 57.6196C72.4355 57.4222 72.3856 57.2178 72.3336 57.0051C72.2786 56.7935 72.2215 56.5748 72.1635 56.3499C72.0493 55.9003 71.9138 55.4302 71.7763 54.9439C71.709 54.7008 71.6306 54.4556 71.5572 54.2063C71.4818 53.9571 71.4085 53.7058 71.3259 53.4535C71.2454 53.2012 71.1639 52.9478 71.0824 52.6925C70.9968 52.4392 70.9102 52.1848 70.8246 51.9305C70.7401 51.6761 70.6473 51.4238 70.5587 51.1715C70.468 50.9202 70.3814 50.6689 70.2867 50.4227C70.1939 50.1765 70.1022 49.9313 70.0105 49.6892C69.9158 49.4491 69.822 49.212 69.7303 48.978C69.6397 48.744 69.5449 48.5172 69.4532 48.2944C69.3605 48.0716 69.2729 47.8528 69.1822 47.6422C68.9988 47.221 68.8317 46.8222 68.6646 46.458C68.5015 46.0928 68.3508 45.7591 68.2122 45.4701C68.0756 45.1792 67.9595 44.9289 67.8525 44.7122C67.6457 44.2839 67.5265 44.0397 67.5265 44.0397C67.1576 43.2777 67.4765 42.3621 68.2397 41.9938C69.0028 41.6255 69.9198 41.9439 70.2887 42.7059C70.3274 42.7853 70.36 42.8748 70.3845 42.9572H70.3835Z" fill="#FF9853"/>
<path d="M45.4581 26.3008C45.4581 26.3008 45.6762 26.5317 46.0583 26.9346C46.2478 27.133 46.4831 27.3873 46.7511 27.6763C47.0211 27.9642 47.3186 28.2918 47.6416 28.6489C47.9667 29.0039 48.31 29.3977 48.6768 29.8097C49.0385 30.2258 49.4216 30.6633 49.8098 31.1221C50.0034 31.352 50.2011 31.585 50.3998 31.821C50.5964 32.0591 50.7951 32.3012 50.9958 32.5444C51.1976 32.7865 51.3952 33.0358 51.5949 33.283C51.7936 33.5323 51.9964 33.7795 52.192 34.0328C52.3887 34.2841 52.5863 34.5364 52.782 34.7867C52.9745 35.04 53.1671 35.2913 53.3576 35.5416C53.5492 35.7908 53.7346 36.0411 53.918 36.2883C54.1004 36.5366 54.2848 36.7777 54.459 37.0208C54.8085 37.5061 55.1488 37.9721 55.4616 38.4218C55.6186 38.6456 55.7714 38.8633 55.9191 39.0749C56.0638 39.2876 56.2044 39.4931 56.3389 39.6904C56.6099 40.0831 56.8494 40.4494 57.0633 40.7719C57.1703 40.9337 57.2702 41.0842 57.3629 41.2236C57.4536 41.365 57.5371 41.4942 57.6115 41.6112C57.9121 42.0782 58.0833 42.3458 58.0833 42.3458C58.0833 42.3458 57.8734 42.1077 57.5066 41.6906C57.4149 41.5868 57.314 41.4708 57.2029 41.3457C57.0909 41.2216 56.9696 41.0873 56.8402 40.9438C56.5814 40.658 56.291 40.3334 55.965 39.9865C55.803 39.8125 55.6349 39.6314 55.4606 39.4442C55.2844 39.2591 55.102 39.0678 54.9145 38.8704C54.5416 38.4757 54.1381 38.0687 53.7234 37.6455C53.5166 37.4339 53.3006 37.2243 53.0846 37.0086C52.8686 36.794 52.6505 36.5762 52.4264 36.3616C52.2032 36.1459 51.978 35.9282 51.7529 35.7105C51.5246 35.4948 51.2954 35.2791 51.0661 35.0624C50.8379 34.8447 50.6046 34.6341 50.3743 34.4215C50.143 34.2098 49.9148 33.9972 49.6825 33.7917C49.4522 33.5852 49.223 33.3797 48.9978 33.1772C48.7695 32.9778 48.5444 32.7804 48.3222 32.5861C47.879 32.1975 47.444 31.8302 47.0333 31.4812C46.6176 31.1363 46.2294 30.8067 45.8626 30.5117C45.4979 30.2136 45.1637 29.942 44.8662 29.708C44.5686 29.4719 44.3129 29.2664 44.0908 29.0955C43.6527 28.7537 43.402 28.5583 43.402 28.5583C42.7346 28.0384 42.6164 27.076 43.1371 26.4106C43.6577 25.7443 44.6216 25.6262 45.288 26.1461C45.3471 26.1919 45.4082 26.2489 45.4581 26.3008Z" fill="#FF9853"/>
<path d="M12.4275 27.6304C12.4275 27.6304 12.4723 27.6405 12.5589 27.6619C12.6466 27.6833 12.776 27.7158 12.9451 27.7575C13.2732 27.843 13.7511 27.9681 14.3481 28.1421C14.9462 28.3151 15.6676 28.5318 16.4868 28.7993C17.307 29.0628 18.225 29.3782 19.2195 29.7373C20.2139 30.0965 21.2817 30.5065 22.4025 30.9582C23.5212 31.414 24.695 31.9084 25.8932 32.4537C26.1928 32.5901 26.4944 32.7274 26.799 32.8658C27.1006 33.0082 27.4053 33.1517 27.7109 33.2971C27.8638 33.3694 28.0176 33.4416 28.1715 33.5149C28.3243 33.5901 28.4771 33.6654 28.631 33.7407C28.9377 33.8923 29.2454 34.0439 29.5551 34.1965C30.1705 34.5088 30.789 34.8273 31.4065 35.1508C31.7131 35.3166 32.0208 35.4825 32.3296 35.6483C32.6383 35.8131 32.946 35.98 33.2496 36.1539C33.8589 36.4988 34.4713 36.8356 35.0694 37.1957C35.3689 37.3727 35.6685 37.5498 35.967 37.7258C36.2656 37.9018 36.557 38.088 36.8504 38.267C37.1428 38.4481 37.4342 38.6282 37.7246 38.8072C38.0109 38.9924 38.2962 39.1765 38.5785 39.3587C38.8607 39.5418 39.1419 39.7239 39.4211 39.905C39.6962 40.0912 39.9692 40.2773 40.2403 40.4605C40.5113 40.6446 40.7793 40.8267 41.0452 41.0068C41.3091 41.1889 41.5669 41.3771 41.8236 41.5592C42.3351 41.9265 42.8405 42.2775 43.3163 42.6417C43.7942 43.0029 44.2649 43.3457 44.7081 43.6937C45.1503 44.0426 45.5772 44.3794 45.9868 44.7029C46.1937 44.8627 46.3883 45.0275 46.5809 45.1872C46.7724 45.3469 46.9609 45.5026 47.1433 45.6552C47.507 45.9614 47.8596 46.2422 48.1754 46.5261C48.4943 46.8058 48.7919 47.0673 49.068 47.3084C49.3431 47.5506 49.5978 47.7703 49.8189 47.9799C50.7104 48.806 51.2199 49.2781 51.2199 49.2781C51.2199 49.2781 50.6799 48.8426 49.7343 48.0796C49.501 47.8863 49.232 47.6848 48.9406 47.4631C48.6502 47.2413 48.3354 47.0022 47.9992 46.7458C47.667 46.4854 47.2961 46.23 46.914 45.9512C46.7225 45.8129 46.5248 45.6704 46.3231 45.525C46.1213 45.3795 45.9165 45.2289 45.7005 45.0844C45.2716 44.7914 44.8253 44.4862 44.3637 44.1708C43.9012 43.8575 43.4101 43.5492 42.9128 43.2247C42.4177 42.8961 41.8929 42.5827 41.3631 42.2551C41.0972 42.0923 40.8302 41.9245 40.5571 41.7627C40.282 41.602 40.0049 41.4402 39.7247 41.2774C39.4455 41.1146 39.1633 40.9498 38.879 40.785C38.5917 40.6253 38.3023 40.4656 38.0109 40.3038C37.7195 40.1431 37.4261 39.9813 37.1316 39.8185C36.8341 39.6618 36.5346 39.5041 36.234 39.3454C35.9324 39.1888 35.6339 39.025 35.3282 38.8724C35.0225 38.7197 34.7158 38.5661 34.4091 38.4125C33.7978 38.1002 33.1722 37.8102 32.5507 37.5121C32.2409 37.3615 31.9271 37.2191 31.6133 37.0777C31.3005 36.9353 30.9867 36.7939 30.6749 36.6524C30.0473 36.3767 29.4196 36.1061 28.796 35.8426C28.4832 35.7144 28.1704 35.5862 27.8607 35.458C27.7058 35.395 27.551 35.3309 27.3961 35.2678C27.2412 35.2068 27.0853 35.1467 26.9315 35.0857C26.6227 34.9646 26.3161 34.8446 26.0114 34.7255C25.7047 34.6106 25.4011 34.4976 25.0995 34.3847C23.8931 33.933 22.7153 33.5301 21.5965 33.1608C20.4758 32.7966 19.411 32.47 18.4237 32.1882C17.4364 31.9074 16.5286 31.6632 15.7216 31.4638C14.9156 31.2614 14.2106 31.1016 13.6308 30.9755C13.0511 30.8483 12.5977 30.7629 12.291 30.7049C12.1422 30.6784 12.0281 30.6581 11.9507 30.6448C11.8722 30.6316 11.8325 30.6255 11.8325 30.6255L11.8213 30.6235C10.9878 30.4851 10.4254 29.6977 10.5639 28.8665C10.7025 28.0343 11.4911 27.4727 12.3236 27.611C12.3572 27.6161 12.3939 27.6243 12.4265 27.6314L12.4275 27.6304Z" fill="#FF9853"/>
<path d="M56.3195 52.0321C56.3195 52.0321 56.6027 52.3627 57.0989 52.9406C57.3465 53.2234 57.6501 53.5968 57.9966 54.017C58.1677 54.2276 58.3583 54.4493 58.5437 54.6884C58.7312 54.9265 58.9278 55.1768 59.1336 55.4372C59.2366 55.5674 59.3415 55.7007 59.4475 55.836C59.5514 55.9744 59.6574 56.1148 59.7654 56.2572C59.9803 56.5431 60.2025 56.8381 60.4307 57.1423C60.6528 57.4506 60.8811 57.767 61.1134 58.0905C61.2295 58.2523 61.3467 58.4161 61.4659 58.5809C61.581 58.7488 61.6972 58.9177 61.8133 59.0886C62.0456 59.4314 62.2871 59.7753 62.5215 60.1304C62.7538 60.4864 62.9881 60.8476 63.2255 61.2118C63.3458 61.3929 63.4599 61.5771 63.574 61.7632C63.6891 61.9484 63.8043 62.1346 63.9194 62.3218C64.0345 62.508 64.1497 62.6952 64.2658 62.8824L64.601 63.4511C64.8221 63.8316 65.0483 64.208 65.2633 64.5895C65.4753 64.9721 65.6862 65.3536 65.8961 65.732C65.948 65.8266 66 65.9213 66.053 66.0149C66.1029 66.1105 66.1528 66.2051 66.2017 66.2997C66.3006 66.489 66.3994 66.6782 66.4972 66.8654C66.6918 67.2408 66.8905 67.6081 67.0678 67.9794C67.2491 68.3477 67.4264 68.7099 67.6007 69.0649C67.7739 69.42 67.9298 69.773 68.0897 70.1139C68.2446 70.4567 68.4056 70.7843 68.5421 71.1099C68.6817 71.4344 68.8172 71.7478 68.9466 72.0489C69.2126 72.6471 69.4255 73.2087 69.6262 73.7001C69.724 73.9473 69.8188 74.1762 69.9013 74.3909C69.9818 74.6066 70.0552 74.804 70.1214 74.983C70.3873 75.6972 70.5392 76.1052 70.5392 76.1052C70.5392 76.1052 70.3435 75.7165 70.0012 75.0359C69.9156 74.866 69.8208 74.6778 69.7179 74.4733C69.613 74.2698 69.4938 74.0521 69.3695 73.8181C69.1168 73.3522 68.8457 72.8211 68.5177 72.2585C68.3567 71.9757 68.1896 71.6816 68.0164 71.3764C67.8462 71.0702 67.6516 70.764 67.4621 70.4435C67.2685 70.125 67.077 69.7954 66.8681 69.4648C66.6582 69.1351 66.4442 68.7994 66.2272 68.4566C66.0132 68.1127 65.7789 67.7729 65.5476 67.426C65.4314 67.253 65.3143 67.079 65.1971 66.904C65.138 66.8166 65.0799 66.7291 65.0208 66.6416C64.9597 66.5551 64.8986 66.4686 64.8374 66.3821C64.5919 66.0352 64.3453 65.6862 64.0967 65.3353C63.846 64.9863 63.5842 64.6434 63.3284 64.2965L62.9423 63.7797C62.8098 63.6098 62.6774 63.4409 62.5459 63.272C62.4145 63.1031 62.282 62.9343 62.1506 62.7664C62.0202 62.5975 61.8887 62.4306 61.7532 62.2679C61.4853 61.9403 61.2193 61.6157 60.9565 61.2953C60.6915 60.9768 60.4205 60.6686 60.1597 60.3623C60.0282 60.2097 59.8988 60.0581 59.7705 59.9086C59.638 59.7621 59.5076 59.6166 59.3782 59.4721C59.1194 59.1852 58.8657 58.9044 58.6191 58.6308C58.3664 58.3622 58.1219 58.1017 57.8845 57.8494C57.7663 57.7233 57.6491 57.6002 57.535 57.4781C57.4178 57.359 57.3027 57.242 57.1906 57.1271C56.9654 56.8982 56.7504 56.6794 56.5457 56.4709C56.3419 56.2613 56.1422 56.0751 55.9578 55.893C55.5869 55.5328 55.272 55.2205 54.9867 54.959C54.4304 54.4382 54.1125 54.1411 54.1125 54.1411C53.4961 53.5642 53.4645 52.5967 54.0432 51.9812C54.622 51.3657 55.5899 51.3341 56.2064 51.912C56.2471 51.9507 56.2869 51.9914 56.3225 52.0331L56.3195 52.0321Z" fill="#FF9853"/>
<path d="M68.144 22.6871C68.144 22.6871 68.2867 22.9893 68.5373 23.5173C68.6627 23.7767 68.8145 24.1124 68.9877 24.4919C69.0733 24.6822 69.1691 24.8836 69.2618 25.0973C69.3545 25.3099 69.4523 25.5337 69.5542 25.7677C69.7621 26.2326 69.9679 26.7454 70.1941 27.2816C70.3051 27.5512 70.4131 27.8309 70.5272 28.1138C70.6403 28.3976 70.7555 28.6876 70.8665 28.9857C70.9786 29.2827 71.0917 29.5849 71.2068 29.8901C71.3169 30.1974 71.4279 30.5087 71.54 30.822C71.6541 31.1344 71.7581 31.4538 71.8661 31.7723C71.9731 32.0907 72.0831 32.4101 72.183 32.7327C72.2848 33.0541 72.3867 33.3756 72.4876 33.6961C72.5834 34.0176 72.6781 34.3391 72.7729 34.6565C72.8697 34.9729 72.9543 35.2913 73.0419 35.6047C73.1264 35.9181 73.2182 36.2253 73.2935 36.5315C73.4505 37.143 73.6043 37.731 73.7317 38.2946C73.7969 38.5754 73.8641 38.8481 73.9222 39.1126C73.9793 39.3781 74.0343 39.6335 74.0873 39.8797C74.1963 40.3701 74.2798 40.8238 74.3583 41.2237C74.397 41.4241 74.4327 41.6113 74.4663 41.7842C74.4969 41.9582 74.5244 42.1179 74.5488 42.2624C74.6487 42.8382 74.7057 43.1679 74.7057 43.1679C74.7057 43.1679 74.6028 42.8504 74.4215 42.295C74.3766 42.1566 74.3267 42.003 74.2717 41.8351C74.2136 41.6693 74.1515 41.4892 74.0852 41.2969C73.9507 40.9134 73.805 40.48 73.6277 40.012C73.5411 39.778 73.4505 39.5338 73.3577 39.2815C73.264 39.0292 73.1591 38.7718 73.0551 38.5052C72.8503 37.9721 72.617 37.4166 72.3776 36.8428C72.2614 36.5549 72.1279 36.267 72.0016 35.973C71.8722 35.68 71.7458 35.3829 71.6073 35.0879C71.4707 34.7918 71.3332 34.4937 71.1956 34.1946C71.052 33.8975 70.9083 33.5995 70.7647 33.3024C70.623 33.0043 70.4722 32.7093 70.3235 32.4162C70.1737 32.1232 70.03 31.8292 69.8752 31.5433C69.7233 31.2564 69.5725 30.9716 69.4238 30.6898C69.2699 30.411 69.1191 30.1353 68.9694 29.8647C68.8216 29.593 68.6708 29.3295 68.5221 29.0721C68.3733 28.8147 68.2307 28.5614 68.087 28.3183C67.7956 27.833 67.5276 27.3711 67.2647 26.954C67.1353 26.7444 67.011 26.544 66.8929 26.3527C66.7747 26.1624 66.6585 25.9864 66.5515 25.8196C66.3365 25.4859 66.1531 25.198 65.9881 24.9518C65.6651 24.4645 65.4807 24.1857 65.4807 24.1857C65.013 23.4817 65.2066 22.5314 65.9127 22.0655C66.6177 21.5985 67.5694 21.7918 68.036 22.4969C68.0758 22.5559 68.1135 22.625 68.143 22.6871H68.144Z" fill="#FF9853"/>
<path d="M33.6028 7.48637C33.6028 7.48637 34.1143 7.91672 35.0089 8.66957C35.121 8.76317 35.2381 8.86287 35.3624 8.96665C35.4867 9.07347 35.6161 9.1864 35.7506 9.3034C36.0206 9.53841 36.3131 9.79174 36.6248 10.0634C37.2545 10.6016 37.9351 11.2283 38.6891 11.9038C39.0671 12.2395 39.4492 12.6027 39.8486 12.9741C40.246 13.3475 40.6617 13.728 41.0784 14.1298C41.9099 14.9376 42.7922 15.78 43.6756 16.6834C44.5722 17.5716 45.4638 18.5259 46.3787 19.4822C47.2713 20.462 48.1913 21.4417 49.0686 22.4611C49.9642 23.4632 50.8191 24.5009 51.6698 25.5122C52.0886 26.0229 52.4952 26.5377 52.9017 27.0423C53.1045 27.2946 53.3052 27.5459 53.5049 27.7952C53.6995 28.0485 53.8921 28.3008 54.0836 28.5501C54.4657 29.0496 54.8417 29.54 55.2085 30.0202C55.5651 30.5085 55.9135 30.9867 56.2528 31.4527C56.9406 32.3764 57.5479 33.2799 58.1215 34.1039C58.2641 34.3105 58.4037 34.5119 58.5403 34.7103C58.6727 34.9107 58.8011 35.1071 58.9274 35.2983C59.1781 35.6809 59.4155 36.043 59.6396 36.3849C59.8618 36.7267 60.0757 37.0421 60.2622 37.3412C60.4476 37.6413 60.6188 37.916 60.7727 38.1653C61.3881 39.1593 61.7406 39.727 61.7406 39.727C61.7406 39.727 61.3493 39.1857 60.6636 38.2385C60.4925 38.0015 60.3029 37.74 60.0971 37.4552C59.8903 37.1703 59.6539 36.8712 59.4094 36.5466C59.1628 36.2231 58.8999 35.8792 58.6238 35.5171C58.4852 35.336 58.3426 35.1508 58.1979 34.9606C58.0481 34.7744 57.8943 34.5831 57.7384 34.3878C57.1097 33.6095 56.4434 32.7569 55.6955 31.8891C55.3267 31.4516 54.9466 31.003 54.5584 30.5441C54.16 30.0945 53.7535 29.6346 53.3398 29.1676C53.133 28.9347 52.9241 28.6986 52.7142 28.4616C52.4992 28.2296 52.2822 27.9956 52.0642 27.7596C51.6271 27.2896 51.1889 26.8104 50.7386 26.3353C49.8256 25.3962 48.9107 24.4338 47.956 23.509C47.0196 22.5669 46.0435 21.6655 45.098 20.7651C44.129 19.8882 43.1875 19.0142 42.2441 18.2044C41.3148 17.3793 40.3876 16.6142 39.5175 15.8807C39.0804 15.5155 38.6453 15.1726 38.2306 14.8338C37.8139 14.4981 37.4145 14.1685 37.0202 13.8663C36.2356 13.2579 35.5224 12.6892 34.8774 12.2141C34.5565 11.973 34.2569 11.7481 33.9788 11.5396C33.8402 11.4358 33.7067 11.3351 33.5794 11.2405C33.449 11.1459 33.3236 11.0553 33.2054 10.9688C32.2589 10.2821 31.7178 9.88941 31.7178 9.88941C31.0352 9.39394 30.8834 8.43863 31.3806 7.75597C31.8768 7.07433 32.8335 6.92274 33.5172 7.41922C33.5457 7.43957 33.5763 7.46398 33.6028 7.48637Z" fill="#FF9853"/>
<path d="M24.1856 21.637C24.1856 21.637 24.4087 21.7398 24.8275 21.9321C25.0374 22.0287 25.2962 22.1488 25.5998 22.2892C25.9075 22.4357 26.2621 22.6046 26.6585 22.7938C27.0548 22.983 27.4838 23.2007 27.9555 23.4337C28.4262 23.6667 28.9286 23.9332 29.4696 24.21C30.0065 24.4928 30.5751 24.8 31.1732 25.1246C31.4707 25.2904 31.7753 25.4613 32.0871 25.6353C32.243 25.7228 32.4009 25.8113 32.5599 25.9008C32.7178 25.9924 32.8778 26.086 33.0388 26.1796C33.3607 26.3678 33.6898 26.5601 34.0251 26.7554C34.3572 26.9569 34.6955 27.1624 35.0389 27.371C35.3843 27.5775 35.7297 27.7962 36.0802 28.019C36.4307 28.2428 36.7893 28.4636 37.1459 28.6986C38.5795 29.6305 40.06 30.6591 41.5628 31.7599C43.0586 32.8709 44.5696 34.0643 46.0653 35.3217C47.5509 36.5924 49.0212 37.9242 50.4395 39.3088C50.793 39.6558 51.1384 40.0118 51.4879 40.3618L52.0096 40.8888L52.517 41.428C52.8532 41.7892 53.1945 42.1432 53.5247 42.5064C53.8507 42.8727 54.1757 43.2379 54.4998 43.6021C54.8278 43.9623 55.1355 44.3377 55.4473 44.706C55.6022 44.8901 55.7571 45.0743 55.9119 45.2584C56.0658 45.4426 56.2227 45.6237 56.3684 45.8119C56.9594 46.5617 57.5575 47.2881 58.1026 48.0379C58.3787 48.4092 58.6568 48.7745 58.9248 49.1417C59.1867 49.5141 59.4455 49.8824 59.7012 50.2466C59.8296 50.4287 59.9559 50.6098 60.0833 50.7899C60.2107 50.97 60.3268 51.1551 60.447 51.3362C60.6865 51.6994 60.9229 52.0586 61.1552 52.4126C61.3926 52.7636 61.6065 53.1227 61.8226 53.4727C62.0375 53.8227 62.2505 54.1686 62.4594 54.5074C62.5653 54.6752 62.6631 54.8472 62.7599 55.0181C62.8567 55.188 62.9535 55.3559 63.0493 55.5227C63.2398 55.8564 63.4273 56.183 63.6107 56.5035C63.7044 56.6622 63.7911 56.8239 63.8746 56.9837C63.9592 57.1434 64.0427 57.3011 64.1263 57.4568C64.2924 57.7691 64.4533 58.0733 64.6113 58.3704C64.6897 58.5189 64.7672 58.6654 64.8436 58.8099C64.9159 58.9574 64.9872 59.1018 65.0565 59.2453C65.1971 59.5312 65.3326 59.8089 65.4651 60.0775C65.5965 60.3461 65.7249 60.6065 65.8482 60.8578C65.9674 61.1112 66.0754 61.3584 66.1824 61.5944C66.3953 62.0665 66.591 62.4999 66.7672 62.8926C66.8579 63.0869 66.9343 63.2761 67.0067 63.4532C67.08 63.6302 67.1483 63.796 67.2115 63.9506C67.3388 64.2589 67.4468 64.5214 67.5345 64.734C67.7097 65.1593 67.8035 65.3862 67.8035 65.3862C67.8035 65.3862 67.6995 65.1644 67.5039 64.7483C67.4061 64.5407 67.2859 64.2833 67.1432 63.9822C67.0719 63.8316 66.9965 63.6699 66.915 63.4969C66.8345 63.324 66.7489 63.1398 66.6491 62.9496C66.4544 62.568 66.2384 62.1448 66.0031 61.6839C65.8849 61.454 65.7657 61.2139 65.6342 60.9677C65.4997 60.7235 65.3602 60.4702 65.2155 60.2098C65.0708 59.9483 64.922 59.6787 64.7692 59.402C64.6928 59.2636 64.6153 59.1222 64.5359 58.9798C64.4523 58.8394 64.3688 58.6979 64.2832 58.5535C64.112 58.2656 63.9368 57.9715 63.7574 57.6694C63.6678 57.5188 63.5771 57.3662 63.4854 57.2116C63.3947 57.0569 63.301 56.9013 63.2001 56.7476C63.0024 56.4384 62.8007 56.123 62.5959 55.8015C62.493 55.6407 62.3901 55.479 62.2851 55.3152C62.1812 55.1514 62.0763 54.9855 61.9621 54.8238C61.739 54.4972 61.5118 54.1655 61.2815 53.8288C61.0502 53.4931 60.822 53.1472 60.5693 52.8114C60.3217 52.4726 60.0711 52.1288 59.8174 51.7818C59.689 51.6089 59.5657 51.4308 59.4312 51.2599C59.2977 51.088 59.1632 50.915 59.0277 50.7411C58.7577 50.3931 58.4846 50.0421 58.2085 49.6881C57.9263 49.3391 57.6339 48.9912 57.3445 48.6382C56.7719 47.926 56.1463 47.2372 55.5288 46.5281C55.376 46.3491 55.213 46.1781 55.053 46.0052C54.892 45.8322 54.731 45.6583 54.569 45.4843C54.245 45.1374 53.9251 44.7823 53.5848 44.4445C53.2496 44.1027 52.9123 43.7588 52.574 43.415C52.2327 43.0741 51.8802 42.7425 51.5327 42.4047L51.009 41.9001L50.4721 41.4077C50.1124 41.0811 49.7578 40.7484 49.3941 40.4259C47.9381 39.1369 46.4352 37.9028 44.9232 36.7328C43.4009 35.5751 41.8695 34.4824 40.3585 33.4691C38.8393 32.467 37.3487 31.5361 35.91 30.6957C35.5514 30.4831 35.1917 30.2857 34.8402 30.0843C34.4887 29.8839 34.1422 29.6875 33.7968 29.5024C33.4524 29.3152 33.1142 29.132 32.782 28.9509C32.4468 28.777 32.1177 28.605 31.7957 28.4372C31.6347 28.3537 31.4748 28.2703 31.3179 28.1889C31.1589 28.1096 31.002 28.0312 30.8461 27.9529C30.5353 27.7983 30.2307 27.6467 29.9342 27.4991C29.3381 27.2122 28.7716 26.9406 28.2367 26.6913C27.6987 26.4482 27.1995 26.2132 26.7318 26.0097C26.2641 25.8073 25.8352 25.6139 25.447 25.4512C25.0598 25.2894 24.7134 25.1439 24.4128 25.0178C24.1102 24.8926 23.8412 24.7868 23.6293 24.7014C23.2024 24.5294 22.9741 24.4379 22.9741 24.4379C22.1906 24.1235 21.8116 23.2343 22.1264 22.452C22.4413 21.6696 23.3318 21.2911 24.1153 21.6055C24.1367 21.6136 24.1632 21.6258 24.1836 21.635L24.1856 21.637Z" fill="#FF9853"/>
<path d="M80.6128 52.3119L79.0845 116.5L77.5561 52.3119C77.5357 51.4695 78.2041 50.7696 79.0478 50.7492C79.8914 50.7289 80.5924 51.3963 80.6128 52.2387C80.6128 52.261 80.6128 52.2885 80.6128 52.3109V52.3119Z" fill="#FF9853"/>
<path d="M80.5281 17.6897L78.9998 39.8206L77.4715 17.6897C77.4134 16.8473 78.0502 16.1168 78.8948 16.0588C79.7395 16.0009 80.4701 16.6367 80.5281 17.4801C80.5332 17.5483 80.5322 17.6246 80.5281 17.6907V17.6897Z" fill="#FF9853"/>
<path d="M79 2.36475L80.3378 5.31411L83.5606 5.67325L81.1642 7.8545L81.8193 11.0267L79 9.42532L76.1818 11.0267L76.8359 7.8545L74.4395 5.67325L77.6632 5.31411L79 2.36475Z" fill="#FF9853"/>
<path d="M110.078 10.4194L109.802 12.6505L111.582 14.027L109.372 14.4543L108.61 16.5705L107.52 14.6039L105.271 14.5347L106.807 12.8917L106.176 10.7338L108.216 11.685L110.078 10.4194Z" fill="#FF9853"/>
<path d="M96.453 15.2825L96.2135 17.2226L97.7623 18.4201L95.8396 18.7914L95.1773 20.6318L94.2298 18.9216L92.2725 18.8616L93.6082 17.4322L93.0601 15.5551L94.835 16.3833L96.453 15.2825Z" fill="#FF9853"/>
<path d="M118.697 21.2839L118.514 22.7703L119.7 23.687L118.228 23.9718L117.721 25.3809L116.995 24.0705L115.495 24.0247L116.519 22.9311L116.099 21.4925L117.459 22.1263L118.697 21.2839Z" fill="#FF9853"/>
<path d="M110.07 53.8774L109.886 55.3638L111.072 56.2805L109.599 56.5653L109.092 57.9744L108.366 56.664L106.867 56.6193L107.891 55.5246L107.471 54.086L108.83 54.7198L110.07 53.8774Z" fill="#FF9853"/>
<path d="M102.079 3.48389L101.896 4.97027L103.082 5.88693L101.61 6.17179L101.102 7.58085L100.377 6.27048L98.877 6.22469L99.9009 5.13102L99.4812 3.69245L100.84 4.32627L102.079 3.48389Z" fill="#FF9853"/>
<path d="M132.513 1.0209L131.704 3.45751L133.389 5.39662L130.818 5.38136L129.491 7.58093L128.711 5.13414L126.207 4.55424L128.296 3.05768L128.075 0.5L130.145 2.02199L132.513 1.0209Z" fill="#FF9853"/>
<path d="M149.588 14.9598L147.314 18.1483L148.899 21.7295L145.158 20.5554L142.237 23.166L142.2 19.2511L138.811 17.2835L142.527 16.0393L143.354 12.2119L145.688 15.3576L149.588 14.9598Z" fill="#FF9853"/>
<path d="M158 25.8114L156.66 27.6925L157.594 29.8056L155.387 29.1127L153.664 30.652L153.642 28.3436L151.643 27.1828L153.835 26.4482L154.323 24.1907L155.7 26.0464L158 25.8114Z" fill="#FF9853"/>
<path d="M47.9239 10.4194L48.199 12.6505L46.4189 14.027L48.6299 14.4543L49.39 16.5705L50.4803 14.6039L52.731 14.5347L51.1945 12.8917L51.8242 10.7338L49.7844 11.685L47.9239 10.4194Z" fill="#FF9853"/>
<path d="M61.5475 15.2825L61.788 17.2226L60.2393 18.4201L62.1619 18.7914L62.8232 20.6318L63.7718 18.9216L65.7291 18.8616L64.3923 17.4322L64.9404 15.5551L63.1665 16.3833L61.5475 15.2825Z" fill="#FF9853"/>
<path d="M39.3024 21.2839L39.4858 22.7703L38.2998 23.687L39.7731 23.9718L40.2795 25.3809L41.006 24.0705L42.5048 24.0247L41.4808 22.9311L41.9006 21.4925L40.5424 22.1263L39.3024 21.2839Z" fill="#FF9853"/>
<path d="M47.9323 53.8774L48.1157 55.3638L46.9297 56.2805L48.402 56.5653L48.9084 57.9744L49.6349 56.664L51.1336 56.6193L50.1107 55.5246L50.5305 54.086L49.1713 54.7198L47.9323 53.8774Z" fill="#FF9853"/>
<path d="M55.9215 3.48389L56.1049 4.97027L54.9199 5.88693L56.3922 6.17179L56.8986 7.58085L57.6251 6.27048L59.1239 6.22469L58.1009 5.13102L58.5207 3.69245L57.1615 4.32627L55.9215 3.48389Z" fill="#FF9853"/>
<path d="M25.4866 1.0209L26.2956 3.45751L24.6104 5.39662L27.182 5.38136L28.5086 7.58093L29.2881 5.13414L31.7936 4.55424L29.7038 3.05768L29.9259 0.5L27.8545 2.02199L25.4866 1.0209Z" fill="#FF9853"/>
<path d="M8.41211 14.9598L10.6863 18.1483L9.1019 21.7295L12.8423 20.5554L15.7634 23.166L15.8011 19.2511L19.191 17.2835L15.4731 16.0393L14.6467 12.2119L12.3124 15.3576L8.41211 14.9598Z" fill="#FF9853"/>
<path d="M0 25.8114L1.34188 27.6925L0.407558 29.8056L2.61346 29.1127L4.33642 30.652L4.35883 28.3436L6.3579 27.1828L4.16524 26.4482L3.67821 24.1907L2.30066 26.0464L0 25.8114Z" fill="#FF9853"/>
</g>
<defs>
<clipPath id="clip0_259_179">
<rect width="158" height="116" fill="white" transform="translate(0 0.5)"/>
</clipPath>
</defs>
</svg>
