<svg width="93" height="78" viewBox="0 0 93 78" fill="none" xmlns="http://www.w3.org/2000/svg">
<path d="M38.0421 78C32.588 78 27.543 77.0195 22.9071 75.0585C18.3393 73.0975 14.3169 70.3589 10.8399 66.8427C7.43116 63.3264 4.7723 59.2016 2.86338 54.4681C0.954461 49.7347 0 44.5618 0 38.9493C0 33.3368 0.920373 28.1638 2.76112 23.4304C4.67004 18.6294 7.32889 14.5046 10.7377 11.0559C14.2146 7.53966 18.2711 4.83485 22.9071 2.94148C27.543 0.980493 32.588 0 38.0421 0C43.4961 0 48.3707 0.912874 52.6658 2.73862C57.029 4.56437 60.7105 6.9987 63.7103 10.0416C66.71 13.0169 68.8575 16.2965 70.1529 19.8804L57.6767 25.6619C56.245 21.8752 53.8248 18.7646 50.416 16.3303C47.0072 13.8283 42.8826 12.5774 38.0421 12.5774C33.2698 12.5774 29.0429 13.6931 25.3614 15.9246C21.7481 18.156 18.9188 21.2328 16.8735 25.1547C14.8964 29.0767 13.9079 33.6749 13.9079 38.9493C13.9079 44.2237 14.8964 48.8557 16.8735 52.8453C18.9188 56.7672 21.7481 59.844 25.3614 62.0754C29.0429 64.3069 33.2698 65.4226 38.0421 65.4226C42.8826 65.4226 47.0072 64.2055 50.416 61.7711C53.8248 59.2692 56.245 56.1248 57.6767 52.3381L70.1529 58.1196C68.8575 61.7035 66.71 65.0169 63.7103 68.0598C60.7105 71.0351 57.029 73.4356 52.6658 75.2614C48.3707 77.0871 43.4961 78 38.0421 78Z" fill="#FF944C"/>
<path d="M79.0921 76.7828V1.21716H93V76.7828H79.0921Z" fill="#FF944C"/>
</svg>
