<svg width="93" height="79" viewBox="0 0 93 79" fill="none" xmlns="http://www.w3.org/2000/svg">
<g clip-path="url(#clip0_275_1215)">
<path d="M84.9402 14.9963H75.5318L69.6233 2.27C69.1245 1.19011 68.0098 0.492676 66.7782 0.492676H26.2218C24.9902 0.492676 23.8755 1.19011 23.3767 2.27L17.4682 14.9963H8.05984C3.6168 14.9963 0 18.4759 0 22.7505V70.7384C0 75.013 3.6168 78.4927 8.05984 78.4927H60.0045C61.7272 78.4927 63.1225 77.1503 63.1225 75.493C63.1225 73.8356 61.7272 72.4933 60.0045 72.4933H8.05984C7.05431 72.4933 6.23586 71.7058 6.23586 70.7384V22.7505C6.23586 21.7831 7.05431 20.9957 8.05984 20.9957H84.9402C85.9457 20.9957 86.7641 21.7831 86.7641 22.7505V70.7384C86.7641 71.7058 85.9457 72.4933 84.9402 72.4933H77.4104C75.6877 72.4933 74.2924 73.8356 74.2924 75.493C74.2924 77.1503 75.6877 78.4927 77.4104 78.4927H84.9402C89.3832 78.4927 93 75.013 93 70.7384V22.7505C93 18.4759 89.3832 14.9963 84.9402 14.9963ZM24.2965 14.9963L28.2484 6.4996H64.7594L68.7113 14.9963H24.2965Z" fill="#FF9256"/>
<path d="M46.4944 22.8252C32.7833 22.8252 21.6289 33.5567 21.6289 46.7479C21.6289 59.9391 32.7833 70.6706 46.4944 70.6706C60.2055 70.6706 71.3599 59.9391 71.3599 46.7479C71.3599 33.5567 60.2055 22.8252 46.4944 22.8252ZM46.4944 64.6712C36.2208 64.6712 27.8648 56.6319 27.8648 46.7479C27.8648 36.8638 36.2208 28.8246 46.4944 28.8246C56.768 28.8246 65.124 36.8638 65.124 46.7479C65.124 56.6319 56.768 64.6712 46.4944 64.6712Z" fill="#FF9256"/>
<path d="M46.498 32.6343C38.407 32.6343 31.8281 38.9637 31.8281 46.7479C31.8281 54.5322 38.407 60.8616 46.498 60.8616C54.589 60.8616 61.1678 54.5322 61.1678 46.7479C61.1678 38.9637 54.589 32.6343 46.498 32.6343ZM46.498 54.8621C41.8445 54.8621 38.064 51.225 38.064 46.7479C38.064 42.2709 41.8445 38.6337 46.498 38.6337C51.1515 38.6337 54.932 42.2709 54.932 46.7479C54.932 51.225 51.1515 54.8621 46.498 54.8621Z" fill="#FF9256"/>
<path d="M74.8058 24.4976H70.1289V28.9971H74.8058V24.4976Z" fill="#FF9256"/>
<path d="M83.1222 24.4976H78.4453V28.9971H83.1222V24.4976Z" fill="#FF9256"/>
</g>
<defs>
<clipPath id="clip0_275_1215">
<rect width="93" height="78" fill="white" transform="translate(0 0.5)"/>
</clipPath>
</defs>
</svg>
