<svg width="105" height="79" viewBox="0 0 105 79" fill="none" xmlns="http://www.w3.org/2000/svg">
<path d="M88.2998 0.5C94.5619 0.5 97.6934 0.49984 100.022 1.85254C101.525 2.72528 102.775 3.975 103.647 5.47754C105 7.80664 105 10.9381 105 17.2002V61.7998C105 68.0619 105 71.1934 103.647 73.5225C102.775 75.025 101.525 76.2747 100.022 77.1475C97.6934 78.5002 94.5619 78.5 88.2998 78.5H16.7002C10.4381 78.5 7.30664 78.5002 4.97754 77.1475C3.475 76.2747 2.22528 75.025 1.35254 73.5225C-0.000159742 71.1934 0 68.0619 0 61.7998V17.2002C0 10.9381 -0.000159742 7.80664 1.35254 5.47754C2.22528 3.975 3.475 2.72528 4.97754 1.85254C7.30664 0.49984 10.4381 0.5 16.7002 0.5H88.2998ZM40.75 60.3516L76 40L40.75 19.6484V60.3516Z" fill="#FF9256"/>
</svg>
